<?xml version="1.0" standalone="no"?><!DOCTYPE svg PUBLIC "-//W3C//DTD SVG 1.1//EN" "http://www.w3.org/Graphics/SVG/1.1/DTD/svg11.dtd"><svg t="1504682982508" class="icon" style="" viewBox="0 0 1029 1024" version="1.1" xmlns="http://www.w3.org/2000/svg" p-id="9388" xmlns:xlink="http://www.w3.org/1999/xlink" width="200.9765625" height="200"><defs><style type="text/css"></style></defs><path d="M514.968114 19.340525c-272.087425 0-492.658788 220.571363-492.658788 492.658787S242.880689 1004.6581 514.968114 1004.6581s492.658788-220.571363 492.658788-492.658788S787.055539 19.340525 514.968114 19.340525z m166.477022 689.331229v54.567369h-339.260169v-40.331147c33.2151-61.683417 83.815358-118.624177 151.836527-170.818155 80.66367-56.93801 117.806003-102.792861 111.505379-137.60168-1.59372-53.75057-31.657132-81.441967-90.15311-83.035687-52.193978 0-85.407702 30.841708-99.642549 92.526501l-66.428824-21.35227c23.724285-86.96567 83.035686-130.485632 177.934203-130.485632 96.455109 3.187439 147.869416 48.265369 154.209918 135.229664 7.895719 56.939385-30.843084 113.099099-116.250786 168.443389-60.125449 41.147946-105.202004 85.409077-135.229664 132.857648h251.479075z" fill="#13ce66" p-id="9389" class="selected"></path></svg>