<?xml version="1.0" standalone="no"?><!DOCTYPE svg PUBLIC "-//W3C//DTD SVG 1.1//EN" "http://www.w3.org/Graphics/SVG/1.1/DTD/svg11.dtd"><svg t="1504683103373" class="icon" style="" viewBox="0 0 1024 1024" version="1.1" xmlns="http://www.w3.org/2000/svg" p-id="13794" xmlns:xlink="http://www.w3.org/1999/xlink" width="200" height="200"><defs><style type="text/css"></style></defs><path d="M512.036126 4.262904c-280.448474 0-507.75516 227.342812-507.75516 507.75516 0 280.412348 227.306685 507.75516 507.75516 507.75516 280.430411 0 507.737096-227.342812 507.737096-507.75516C1019.773223 231.623778 792.466537 4.262904 512.036126 4.262904zM653.163521 638.604622c-4.877051 37.860363-21.838349 68.405151-50.938084 91.688552s-62.119174 34.464491-98.949938 33.489081c-36.884953-0.957347-68.892856-12.590016-96.059834-34.934133-27.185041-22.289928-44.670171-54.803599-52.383136-97.504886l52.383136-8.724502c7.749092 25.234221 20.375234 46.133286 37.8423 62.570753 17.48513 16.50972 39.305415 24.313001 65.496984 23.283401 26.191568-0.957347 47.018381-11.650732 62.570753-31.989839 15.498183-20.393297 22.271865-43.676698 20.375234-69.850203-1.95082-26.209631-12.138437-46.584865-30.562851-61.143764-18.442477-14.558899-48.011854-24.746516-88.762321-30.562851l0-37.8423c40.750467-3.865514 70.301782-14.558899 88.762321-32.025966 18.442477-17.467067 26.66121-40.244699 24.746516-68.405151-1.95082-28.106262-14.558899-48.481496-37.8423-61.125701-23.283401-12.590016-48.029917-14.053131-74.221485-4.371282-26.191568 9.736038-47.054507 36.884953-62.588816 81.500935l-52.383136-8.724502c11.650732-34.934133 27.654683-64.033868 48.029917-87.317269s48.029917-36.848827 82.96405-40.750467c34.91607-3.865514 65.47892 0.487705 91.688552 13.095784 26.191568 12.644205 44.615982 32.007903 55.309367 58.217534 10.639196 26.209631 12.102311 54.857788 4.353219 85.872217-7.785218 31.068619-30.111272 58.217534-66.942036 81.500935 27.148915 11.650732 48.029917 29.099735 62.588816 52.383136C653.163521 570.199471 657.986382 600.798448 653.163521 638.604622z" p-id="13795" class="selected" fill="#13ce66"></path></svg>