<?xml version="1.0" standalone="no"?><!DOCTYPE svg PUBLIC "-//W3C//DTD SVG 1.1//EN" "http://www.w3.org/Graphics/SVG/1.1/DTD/svg11.dtd"><svg t="1504683170429" class="icon" style="" viewBox="0 0 1029 1024" version="1.1" xmlns="http://www.w3.org/2000/svg" p-id="15686" xmlns:xlink="http://www.w3.org/1999/xlink" width="200.9765625" height="200"><defs><style type="text/css"></style></defs><path d="M539.467945 363.292472c-1.600595 4.766033-3.199815 7.967224-4.764658 9.532067 0 1.600595-1.600595 3.983612-4.766033 7.14905-4.766033 7.967224-7.967224 13.515678-9.532067 16.679741-1.600595 3.202565-5.585582 8.749645-11.915083 16.679742-19.062758 27.029982-34.961453 49.258178-47.657583 66.720341-1.60197 3.202565-4.766033 7.14905-9.532067 11.915084-3.202565 6.366628-6.366628 11.132662-9.532067 14.296725-14.296725 19.062758-32.578437 44.492145-54.806633 76.252408-6.366628 11.132662-10.35024 17.49929-11.915083 19.062758h166.802916V408.567039v-23.828792c1.219698-13.62431 1.984243-22.87586 2.262009-27.815154-0.404274 1.560718-1.952616 3.679719-4.643651 6.369379z" fill="#2ecc71" p-id="15687"></path><path d="M514.968114 18.75749c-272.409194 0-493.241822 220.831253-493.241822 493.241822s220.831253 493.241822 493.241822 493.241823 493.241822-220.831253 493.241822-493.241823-220.832628-493.241822-493.241822-493.241822z m157.941889 637.630906h-64.335949v109.613266h-66.720342v-109.613266H303.563046V611.11383l238.290666-338.370491h66.720342v328.839799h64.335949v54.805258z" fill="#13ce66" p-id="15688" class="selected"></path></svg>