<?xml version="1.0" standalone="no"?><!DOCTYPE svg PUBLIC "-//W3C//DTD SVG 1.1//EN" "http://www.w3.org/Graphics/SVG/1.1/DTD/svg11.dtd"><svg t="1499515921123" class="icon" style="" viewBox="0 0 1024 1024" version="1.1" xmlns="http://www.w3.org/2000/svg" p-id="2623" xmlns:xlink="http://www.w3.org/1999/xlink" width="200" height="200"><defs><style type="text/css"></style></defs><path d="M25.088 511.488c0 268.8 217.6 486.4 486.4 486.4s486.4-217.6 486.4-486.4-217.6-486.4-486.4-486.4-486.4 218.112-486.4 486.4" fill="#CCCCCC" p-id="2624"></path><path d="M447.488 577.536c-141.312 61.952-183.296 94.72-200.192 109.568-25.6 23.04-39.936 118.784-55.296 190.976 0 0 123.904 119.808 318.976 119.808s318.976-118.784 318.976-118.784c-15.36-72.192-29.184-169.984-54.784-192.512-16.896-14.848-57.344-47.104-198.656-108.544l-129.024-0.512z" fill="#FFD16D" p-id="2625"></path><path d="M579.584 454.144v156.16c-37.888 46.08-99.328 44.544-137.216 0V454.144c0.512-84.48 137.216-84.48 137.216 0z" fill="#FFDECC" p-id="2626"></path><path d="M579.584 454.144v104.448c-26.112 18.944-50.688 29.696-68.608 29.696-17.408 0-42.496-10.752-68.608-29.696V454.144c0.512-84.48 137.216-84.48 137.216 0z" fill="#F7C5AA" p-id="2627"></path><path d="M436.224 576l-48.64 26.112 70.656 97.792 53.248-50.688-75.264-73.216z" fill="#FFFFFF" p-id="2628"></path><path d="M586.752 576l48.64 26.112-70.656 97.792-53.248-50.688 75.264-73.216z" fill="#FFFFFF" p-id="2629"></path><path d="M313.344 955.904l19.968 8.192C332.8 915.456 332.8 783.36 332.8 783.36l-19.456 172.544z m399.36-1.024l-23.552 9.728c0.512-48.64 0.512-180.736 0.512-180.736l23.04 171.008z" fill="#B98D39" p-id="2630"></path><path d="M511.488 184.832c-229.888 0-147.456 277.504-132.096 300.032 16.384 24.576 95.232 89.088 132.096 89.088 37.376 0 115.712-64.512 132.096-89.088 15.36-22.016 97.792-300.032-132.096-300.032z" fill="#FFDECC" p-id="2631"></path><path d="M334.848 367.104c12.288-4.096 27.648 9.728 34.304 30.72 6.656 20.992 2.56 40.96-9.216 45.056-12.288 4.096-27.648-9.728-34.304-30.72-7.168-20.992-2.56-40.96 9.216-45.056z m352.768 0c-12.288-4.096-27.648 9.728-34.304 30.72-6.656 20.992-2.56 40.96 9.216 45.056 12.288 4.096 27.648-9.728 34.304-30.72 7.168-20.992 2.56-40.96-9.216-45.056z" fill="#FFDECC" p-id="2632"></path><path d="M406.528 277.504c-13.312 72.704-46.592 66.048-44.032 151.552-10.752-66.56-26.624-155.136 18.432-213.504 36.352-46.592 156.16-79.872 233.472-24.064 85.504 18.432 58.88 193.024 47.616 225.792-8.192-53.248-26.112-75.776-48.64-138.752-30.72 22.528-167.424 27.136-206.848-1.024z" fill="#CC7B53" p-id="2633"></path></svg>