<?xml version="1.0" standalone="no"?><!DOCTYPE svg PUBLIC "-//W3C//DTD SVG 1.1//EN" "http://www.w3.org/Graphics/SVG/1.1/DTD/svg11.dtd"><svg t="1504490028253" class="icon" style="" viewBox="0 0 1024 1024" version="1.1" xmlns="http://www.w3.org/2000/svg" p-id="5376" xmlns:xlink="http://www.w3.org/1999/xlink" width="200" height="200"><defs><style type="text/css"></style></defs><path d="M670.72 848.384c0-97.28 78.848-175.616 175.616-175.616 51.2 0 97.28 22.016 129.024 56.832 30.72-66.048 48.128-139.264 48.128-217.088C1024 229.376 794.624 0 512 0S0 229.376 0 512s229.376 512 512 512c76.8 0 149.504-16.896 214.528-47.104-34.304-32.256-55.808-77.824-55.808-128.512z m-222.72-272.384v256h-128v-640h256c126.464 0 192 88.064 192 192s-65.536 192-192 192h-128z" p-id="5377" class="selected" fill="#13ce66"></path><path d="M576 320h-128v128h128c54.272 0 64-14.336 64-64s-9.728-64-64-64z" p-id="5378" class="selected" fill="#13ce66"></path><path d="M869.888 955.904h-51.712v-41.472h-59.392v-29.696h59.392V875.52l-6.656-10.752h-51.712l-1.536-30.72h42.496l-42.496-87.552h54.272l34.304 91.136 35.84-91.136h52.736l-42.496 87.552h34.304v30.72H875.52l-6.656 10.752v9.216H926.72v29.696h-57.856v41.472z" p-id="5379" class="selected" fill="#13ce66"></path></svg>