<?xml version="1.0" standalone="no"?><!DOCTYPE svg PUBLIC "-//W3C//DTD SVG 1.1//EN" "http://www.w3.org/Graphics/SVG/1.1/DTD/svg11.dtd"><svg t="1506751176218" class="icon" style="" viewBox="0 0 1024 1024" version="1.1" xmlns="http://www.w3.org/2000/svg" p-id="21587" xmlns:xlink="http://www.w3.org/1999/xlink" width="150" height="150"><defs><style type="text/css"></style></defs><path d="M226.08876 647.557372" p-id="21588" fill="#1296db"></path><path d="M959.115736 504.971933l-0.11768 0C953.987948 264.234033 755.741815 70.596871 511.888971 70.596871c-243.840564 0-442.097954 193.636139-447.108061 434.375062l-0.118704 0c0 1.566682 0.042979 3.122107 0.059352 4.684696-0.016373 1.550309-0.059352 3.093455-0.059352 4.647857l0.118704 0c4.970198 242.711857 203.242937 437.96789 447.108061 437.96789 243.878426 0 442.137863-195.257056 447.109084-437.96789l0.11768 0c0-1.554402-0.042979-3.097548-0.060375-4.647857C959.072757 508.09404 959.115736 506.538615 959.115736 504.971933zM442.371688 814.735929 271.205307 401.550469l99.69049-193.440687 207.240995 66.284659 171.155125 413.186484L442.371688 814.735929z" p-id="21589" fill="#1296db"></path><path d="M395.354861 267.13306c-13.053294 5.41636-19.254529 20.363793-13.840216 33.392528 5.40408 13.026688 20.341281 19.240203 33.380248 13.850449 13.041014-5.415336 19.22997-20.339234 13.826913-33.392528C423.330006 267.956821 408.392806 261.742283 395.354861 267.13306z" p-id="21590" fill="#1296db"></path><path d="M555.346739 432.005085c3.941775 9.014304 6.170536 18.249643 6.690376 27.707039 0.517793 9.460466-0.970094 18.600637-4.465708 27.41949-3.493567 8.821923-9.16166 17.076934-17.003256 24.76401-7.840572 7.689123-18.129916 14.317077-30.863938 19.884886l-49.66719 21.716604 35.787064 81.8471-34.090423 14.905478L368.311948 436.592566l81.848123-35.788088c13.027711-5.695722 25.028023-9.074679 36.000935-10.138918 10.971889-1.061169 20.871353-0.167822 29.703509 2.680039 8.830109 2.848884 16.556071 7.580652 23.183002 14.192234C545.673425 414.152485 551.109228 422.306188 555.346739 432.005085zM521.092587 447.334211c-5.568832-12.734022-13.767562-20.936845-24.588001-24.606421-10.824533-3.670599-24.02416-2.099824-39.599903 4.710278l-43.642986 19.082614 36.044938 82.435501 45.11143-19.724227c7.836479-3.426029 14.135952-7.432273 18.897396-12.024871 4.76042-4.589528 8.16496-9.547447 10.211573-14.878872 2.045589-5.328355 2.826372-10.9504 2.340301-16.865109C525.382287 459.548394 523.787976 453.505771 521.092587 447.334211z" p-id="21591" fill="#1296db"></path></svg>