<?xml version="1.0" standalone="no"?><!DOCTYPE svg PUBLIC "-//W3C//DTD SVG 1.1//EN" "http://www.w3.org/Graphics/SVG/1.1/DTD/svg11.dtd"><svg t="1503624185575" class="icon" style="" viewBox="0 0 1024 1024" version="1.1" xmlns="http://www.w3.org/2000/svg" p-id="12254" xmlns:xlink="http://www.w3.org/1999/xlink" width="200" height="200"><defs><style type="text/css"></style></defs><path d="M512.499 22.999c-273.664 0-495.5 221.836-495.5 495.5 0 273.663 221.836 495.5 495.5 495.5 273.663 0 495.5-221.837 495.5-495.5C1007.999 244.835 786.162 22.999 512.499 22.999zM757.335 514.912l0 106.594c0 24.501-19.926 44.447-44.427 44.447l-24.053 0-107.201 70.318 0 1.08c-0.011 19.788-16.11 35.911-35.921 35.911l-51.167 0c-19.8 0-35.898-16.123-35.898-35.911l0-3.29c0-19.788 16.099-35.898 35.898-35.898l51.167 0c12.857 0 24.15 6.79 30.498 16.964l84.326-55.31c-13.129-7.735-21.964-22.011-21.964-38.312L638.593 514.912c0-24.501 19.948-44.449 44.462-44.449l29.853 0c7.758 0 15.054 2.005 21.407 5.516C718.483 367.752 625.045 284.4 512.487 284.4c-112.538 0-205.977 83.355-221.806 191.587 6.36-3.516 13.664-5.524 21.432-5.524l29.841 0c24.501 0 44.426 19.947 44.426 44.449l0 106.594c0 24.501-19.925 44.447-44.426 44.447l-29.841 0c-24.513 0-44.45-19.946-44.45-44.447L267.663 514.912c0-1.438 0.075-2.86 0.209-4.265-0.137-0.671-0.209-1.365-0.209-2.076 0-135.011 109.836-244.836 244.824-244.836 135.011 0 244.848 109.825 244.848 244.836 0 0.711-0.072 1.405-0.209 2.076C757.261 512.052 757.335 513.474 757.335 514.912z" p-id="12255" fill="#59c5eb"></path></svg>