<?xml version="1.0" standalone="no"?><!DOCTYPE svg PUBLIC "-//W3C//DTD SVG 1.1//EN" "http://www.w3.org/Graphics/SVG/1.1/DTD/svg11.dtd"><svg t="1518422843110" class="icon" style="" viewBox="0 0 1024 1024" version="1.1" xmlns="http://www.w3.org/2000/svg" p-id="5269" xmlns:xlink="http://www.w3.org/1999/xlink" width="555" height="555"><defs><style type="text/css"></style></defs><path d="M826.026667 61.44H197.973333c-22.755556 0-43.235556 9.102222-56.888889 25.031111-15.928889 13.653333-25.031111 34.133333-25.031111 56.888889v122.88c13.653333 0 27.306667 6.826667 36.408889 20.48 6.826667 13.653333 6.826667 27.306667 0 40.96-6.826667 13.653333-20.48 20.48-36.408889 20.48v102.4c13.653333 0 27.306667 6.826667 36.408889 20.48 6.826667 13.653333 6.826667 27.306667 0 40.96-6.826667 13.653333-20.48 20.48-36.408889 20.48v102.4c13.653333 0 27.306667 6.826667 36.408889 20.48 6.826667 13.653333 6.826667 27.306667 0 40.96-6.826667 13.653333-20.48 20.48-36.408889 20.48v163.84c0 45.511111 36.408889 81.92 81.92 81.92h628.053334c22.755556 0 43.235556-9.102222 56.888889-25.031111 15.928889-15.928889 25.031111-36.408889 25.031111-56.888889V143.36c0-45.511111-36.408889-81.92-81.92-81.92z m-131.982223 664.462222c-31.857778 31.857778-157.013333 2.275556-277.617777-120.604444-120.604444-120.604444-152.462222-243.484444-120.604445-277.617778 29.582222-29.582222 63.715556-79.644444 116.053334-13.653333s27.306667 84.195556-2.275556 113.777777c-20.48 20.48 22.755556 72.817778 68.266667 118.328889s97.848889 88.746667 118.328889 68.266667c29.582222-29.582222 47.786667-54.613333 113.777777-2.275556 61.44 50.062222 13.653333 84.195556-15.928889 113.777778z" fill="#c01e2f" p-id="5270" data-spm-anchor-id="a313x.7781069.0.i2" class="selected"></path></svg>