<?xml version="1.0" standalone="no"?><!DOCTYPE svg PUBLIC "-//W3C//DTD SVG 1.1//EN" "http://www.w3.org/Graphics/SVG/1.1/DTD/svg11.dtd"><svg t="1518422279791" class="icon" style="" viewBox="0 0 1024 1024" version="1.1" xmlns="http://www.w3.org/2000/svg" p-id="1784" xmlns:xlink="http://www.w3.org/1999/xlink" width="555" height="555"><defs><style type="text/css"></style></defs><path d="M925.2 692.3l-76.4 63.8V503.8h92.1v155.1c-0.1 12.9-5.8 25.1-15.7 33.4z" fill="#2196F3" p-id="1785"></path><path d="M940.8 525.6l-92.1 76.8V350.2h92.1z" fill="#F44336" p-id="1786"></path><path d="M940.8 360.5l-92.1 76.9V152.7h92.1z" fill="#FFCA28" p-id="1787"></path><path d="M929.1 197.6l-111.8 91.9 31.5-233.6h59.4c18 0 32.6 14.6 32.6 32.6v84c0 9.7-4.3 18.9-11.7 25.1z" fill="#4CAF50" p-id="1788"></path><path d="M819 968.1H126.7c-24 0-43.5-19.5-43.5-43.5V99.4c0-24 19.5-43.5 43.5-43.5h735.8v868.7c0 24-19.4 43.5-43.5 43.5z" fill="#4CAF50" p-id="1789"></path><path d="M126.7 55.9c-24 0-43.5 19.5-43.5 43.5v825.2c0 24 19.5 43.5 43.5 43.5H217V55.9h-90.3z" fill="#2E7D32" p-id="1790"></path><path d="M862.5 924.6V841L689.4 609.4H581.3l-162.9-55.6 309.8 414.4H819c24.1-0.1 43.5-19.6 43.5-43.6z" fill="#43A047" p-id="1791"></path><path d="M493.9 538.7c-34.4-34.4-67.3-74.2-51.5-90 22.5-22.5 42.2-36.4 2.3-86.2-40-49.8-66.6-11.6-88.5 10.3C331 398 354.8 492 447.7 584.9c92.9 92.9 186.9 116.8 212.1 91.6 21.8-21.8 60-48.5 10.3-88.4-49.7-40-63.6-20.3-86.2 2.3-15.7 15.6-55.6-17.3-90-51.7z" fill="#E8F5E9" p-id="1792"></path></svg>