<?xml version="1.0" standalone="no"?><!DOCTYPE svg PUBLIC "-//W3C//DTD SVG 1.1//EN" "http://www.w3.org/Graphics/SVG/1.1/DTD/svg11.dtd"><svg t="1506756799356" class="icon" style="" viewBox="0 0 1024 1024" version="1.1" xmlns="http://www.w3.org/2000/svg" p-id="36334" xmlns:xlink="http://www.w3.org/1999/xlink" width="150" height="150"><defs><style type="text/css"></style></defs><path d="M510.487042 63.666018c-247.492744 0-448.152856 200.638623-448.152856 448.15388 0 247.518327 200.660112 448.167183 448.152856 448.167183 247.51628 0 448.176392-200.648856 448.176392-448.167183C958.663434 264.303618 758.003322 63.666018 510.487042 63.666018zM652.932288 576.155159c18.59245 0 33.619702 15.154141 33.619702 33.871435 0 18.665105-15.028275 33.818223-33.619702 33.818223l-100.840686 0 0 90.200348c0 18.707061-15.048741 33.871435-33.599236 33.871435-18.59245 0-33.599236-15.163351-33.599236-33.871435l0-90.200348-100.840686 0c-18.59245 0-33.599236-15.153118-33.599236-33.818223 0-18.717294 15.006785-33.871435 33.599236-33.871435l100.840686 0 0-67.607794-100.840686 0c-18.59245 0-33.599236-15.163351-33.599236-33.828456 0-18.707061 15.006785-33.871435 33.599236-33.871435l70.950935 0-67.36527-92.044346c-13.132088-13.214976-13.132088-34.630728 0-47.845705 13.131065-13.214976 34.391275-13.214976 47.52234 0l83.331917 108.105137 83.310428-108.105137c13.131065-13.214976 34.412764-13.214976 47.543829 0 13.132088 13.214976 13.132088 34.631752 0 47.845705l-67.38676 92.044346 70.971401 0c18.59245 0 33.619702 15.163351 33.619702 33.871435 0 18.665105-15.028275 33.828456-33.619702 33.828456l-100.840686 0L552.090579 576.155159 652.932288 576.155159z" p-id="36335" fill="#1296db"></path></svg>