<?xml version="1.0" standalone="no"?><!DOCTYPE svg PUBLIC "-//W3C//DTD SVG 1.1//EN" "http://www.w3.org/Graphics/SVG/1.1/DTD/svg11.dtd"><svg t="1506756696144" class="icon" style="" viewBox="0 0 1024 1024" version="1.1" xmlns="http://www.w3.org/2000/svg" p-id="34035" xmlns:xlink="http://www.w3.org/1999/xlink" width="150" height="150"><defs><style type="text/css"></style></defs><path d="M514.311168 952.648704c-246.534144 0-446.427136-199.855104-446.427136-446.299136 0-246.460416 199.892992-446.281728 446.427136-446.281728 246.424576 0 446.282752 199.821312 446.282752 446.281728C960.594944 752.7936 760.736768 952.648704 514.311168 952.648704L514.311168 952.648704zM514.238464 122.49088c-211.989504 0-383.876096 171.849728-383.876096 383.857664 0 211.935232 171.886592 383.822848 383.876096 383.822848 211.989504 0 383.842304-171.886592 383.842304-383.822848C898.080768 294.341632 726.228992 122.49088 514.238464 122.49088L514.238464 122.49088zM514.238464 855.590912c-192.881664 0-349.294592-156.341248-349.294592-349.242368 0-192.881664 156.413952-349.277184 349.294592-349.277184 192.95744 0 349.295616 156.39552 349.295616 349.277184C863.53408 699.250688 707.195904 855.590912 514.238464 855.590912L514.238464 855.590912zM768.65536 506.458112 545.622016 506.458112 545.622016 249.264128c0-17.58208-14.348288-31.839232-31.929344-31.839232-17.580032 0-31.85664 14.257152-31.85664 31.839232l0 289.032192c0 17.599488 14.275584 31.911936 31.85664 31.911936 17.581056 0 254.961664 0 254.961664 0 17.58208 0 31.893504-14.313472 31.893504-31.911936C800.548864 520.715264 786.23744 506.458112 768.65536 506.458112L768.65536 506.458112z" p-id="34036" fill="#10ae49"></path></svg>