<?xml version="1.0" standalone="no"?><!DOCTYPE svg PUBLIC "-//W3C//DTD SVG 1.1//EN" "http://www.w3.org/Graphics/SVG/1.1/DTD/svg11.dtd"><svg t="1495078625470" class="icon" style="" viewBox="0 0 1024 1024" version="1.1" xmlns="http://www.w3.org/2000/svg" p-id="3106" xmlns:xlink="http://www.w3.org/1999/xlink" width="200" height="200"><defs><style type="text/css"></style></defs><path d="M305.92 601.6l-17.92 11.52-10.24-16.64-111.36 71.68 11.52 17.92-17.92 11.52-21.76-34.56 62.72-40.96c-3.84-2.56-7.68-5.12-10.24-6.4l16.64-15.36c3.84 2.56 7.68 6.4 12.8 10.24l65.28-42.24 20.48 33.28z m-61.44 154.88l5.12 8.96-17.92 11.52-55.04-85.76 49.92-32-8.96-14.08 17.92-11.52 8.96 14.08 51.2-32 55.04 85.76-17.92 11.52-5.12-8.96-33.28 20.48 21.76 33.28-17.92 11.52-21.76-33.28-32 20.48zM204.8 695.04l8.96 14.08 33.28-20.48-8.96-14.08-33.28 20.48z m29.44 44.8l33.28-20.48-8.96-14.08-33.28 20.48 8.96 14.08z m55.04-98.56L256 663.04l8.96 14.08 33.28-21.76-8.96-14.08z m28.16 44.8l-8.96-14.08-33.28 21.76 8.96 14.08 33.28-21.76zM439.04 677.12l-16.64 11.52-48.64-75.52c3.84 16.64 6.4 32 6.4 48.64l-19.2-14.08c1.28-21.76-2.56-44.8-10.24-67.84l-20.48 14.08-11.52-17.92 21.76-14.08-20.48-30.72 16.64-11.52 20.48 32 17.92-11.52 10.24 16.64-17.92 11.52 5.12 8.96c12.8 3.84 26.88 7.68 40.96 12.8v21.76c-11.52-5.12-20.48-10.24-28.16-14.08l53.76 79.36z m-29.44-179.2c-5.12-3.84-11.52-6.4-16.64-8.96L409.6 473.6c5.12 3.84 11.52 7.68 17.92 12.8l37.12-24.32 10.24 16.64-47.36 30.72c1.28 19.2 0 33.28-1.28 43.52 8.96-6.4 16.64-12.8 24.32-19.2 0-8.96 0-16.64-1.28-25.6l19.2-1.28c5.12 44.8-5.12 84.48-30.72 117.76l-19.2-8.96c14.08-17.92 23.04-37.12 28.16-58.88l-32 23.04-12.8-11.52c1.28-1.28 1.28-2.56 2.56-3.84 3.84-7.68 5.12-23.04 3.84-43.52l-29.44 19.2-10.24-16.64 40.96-25.6z m51.2 166.4l-19.2-8.96c30.72-38.4 44.8-81.92 40.96-130.56l19.2-1.28c1.28 19.2 1.28 38.4-2.56 56.32 17.92 2.56 34.56 6.4 48.64 11.52l-5.12 21.76c-12.8-6.4-29.44-10.24-48.64-14.08-6.4 21.76-17.92 43.52-33.28 65.28zM523.52 414.72c1.28 7.68 3.84 15.36 3.84 23.04l26.88-17.92-16.64-29.44 17.92-11.52 17.92 28.16 55.04-35.84 11.52 17.92-55.04 35.84 5.12 6.4c3.84 7.68 7.68 15.36 11.52 21.76l67.84-43.52 11.52 16.64-60.16 38.4c21.76 16.64 53.76 20.48 94.72 11.52v21.76c-44.8 6.4-79.36 1.28-104.96-17.92 2.56 11.52 3.84 21.76 2.56 32-1.28 23.04-12.8 48.64-33.28 74.24l-19.2-8.96c20.48-25.6 32-48.64 32-67.84 0-7.68-1.28-15.36-2.56-24.32l-60.16 38.4-11.52-16.64 64-40.96c-2.56-7.68-6.4-15.36-11.52-23.04l-5.12-6.4-35.84 23.04c0 12.8-1.28 24.32-3.84 35.84l-24.32-3.84c6.4-23.04 6.4-47.36 0-74.24l21.76-2.56zM773.12 354.56l-17.92-6.4 29.44 46.08-16.64 10.24-60.16-93.44-34.56 23.04 60.16 93.44-16.64 10.24-70.4-108.8 67.84-43.52 39.68 61.44c1.28-23.04-5.12-51.2-21.76-81.92l19.2-8.96c3.84 8.96 7.68 17.92 10.24 25.6l46.08-29.44 11.52 16.64-8.96 6.4c16.64 29.44 26.88 56.32 29.44 83.2 15.36 5.12 30.72 7.68 47.36 8.96l1.28 23.04c-16.64 0-33.28-3.84-48.64-8.96-1.28 16.64-5.12 32-12.8 47.36l-20.48-8.96c7.68-15.36 11.52-30.72 11.52-47.36-16.64-8.96-30.72-19.2-46.08-34.56 2.56 5.12 2.56 11.52 1.28 16.64z m-67.84-26.88l34.56 52.48c12.8 20.48 19.2 38.4 21.76 53.76 1.28 15.36-2.56 29.44-11.52 43.52l-19.2-8.96c7.68-14.08 11.52-25.6 10.24-37.12-2.56-12.8-7.68-25.6-16.64-40.96l-34.56-52.48 15.36-10.24z m103.68 93.44l-5.12 21.76c-10.24-5.12-24.32-10.24-40.96-14.08L768 409.6c15.36 3.84 28.16 7.68 40.96 11.52z m-14.08-136.96l-25.6 16.64c0 1.28 1.28 3.84 1.28 5.12 15.36 17.92 30.72 32 48.64 40.96-3.84-19.2-11.52-40.96-24.32-62.72z" fill="#F6AE9B" p-id="3107"></path><path d="M1017.6 381.44L861.44 134.4c-12.8-20.48-40.96-26.88-64-14.08L21.76 610.56C1.28 624.64-5.12 652.8 7.68 674.56l154.88 244.48c14.08 20.48 42.24 26.88 64 14.08l775.68-491.52c21.76-11.52 28.16-39.68 15.36-60.16zM985.6 417.28L209.92 908.8c-6.4 5.12-15.36 1.28-20.48-5.12L34.56 659.2c-5.12-6.4-2.56-16.64 3.84-20.48l775.68-491.52c6.4-5.12 15.36-1.28 20.48 5.12L990.72 396.8c5.12 6.4 1.28 16.64-5.12 20.48zM309.76 231.68l-2.56-33.28 28.16 17.92 30.72-14.08-7.68 32 21.76 25.6-34.56 2.56-15.36 28.16-12.8-30.72-32-6.4c-1.28 1.28 24.32-21.76 24.32-21.76z m175.36-61.44l14.08-30.72 15.36 28.16 33.28 2.56-21.76 24.32 6.4 33.28-30.72-14.08-28.16 17.92 5.12-33.28-25.6-21.76c-1.28 0 32-6.4 32-6.4z m230.4 655.36l2.56 33.28-28.16-17.92-30.72 12.8 7.68-32-21.76-25.6L678.4 793.6l17.92-28.16 12.8 30.72 32 6.4-25.6 23.04z m-175.36 60.16L524.8 916.48l-15.36-28.16-33.28-2.56 24.32-24.32-6.4-32 30.72 14.08 28.16-15.36-5.12 33.28 24.32 21.76c0-3.84-32 2.56-32 2.56zM190.72 369.92l-19.2-26.88 33.28 1.28 20.48-26.88 8.96 32 32 11.52-26.88 19.2v33.28l-25.6-20.48-32 8.96c-2.56 0 8.96-32 8.96-32z" fill="#F6AE9B" p-id="3108"></path><path d="M288 172.8C416 90.88 573.44 89.6 700.16 153.6l30.72-19.2c-37.12-20.48-78.08-37.12-120.32-46.08-56.32-12.8-115.2-14.08-171.52-5.12-58.88 8.96-115.2 30.72-166.4 64s-94.72 72.96-128 122.88C111.36 318.72 88.32 371.2 75.52 427.52c-8.96 43.52-12.8 85.76-8.96 128l30.72-19.2C89.6 394.24 158.72 253.44 288 172.8z m446.72 704c-128 81.92-284.16 83.2-410.88 19.2l-30.72 19.2c37.12 20.48 78.08 37.12 120.32 46.08 56.32 12.8 115.2 14.08 171.52 5.12 58.88-8.96 115.2-32 166.4-64s94.72-72.96 128-122.88C912.64 730.88 934.4 678.4 947.2 622.08c8.96-43.52 12.8-84.48 8.96-128l-28.16 19.2c3.84 142.08-65.28 282.88-193.28 363.52z" fill="#F6AE9B" p-id="3109"></path><path d="M381.44 318.72c34.56-21.76 75.52-34.56 115.2-37.12l47.36-30.72c-62.72-7.68-124.16 6.4-179.2 40.96-53.76 33.28-92.16 84.48-113.92 143.36l47.36-30.72c19.2-33.28 46.08-64 83.2-85.76z m261.12 412.16c-34.56 21.76-75.52 34.56-115.2 37.12l-47.36 30.72c62.72 7.68 124.16-6.4 179.2-40.96 53.76-33.28 92.16-84.48 113.92-143.36l-47.36 30.72c-19.2 32-48.64 64-83.2 85.76z" fill="#F6AE9B" p-id="3110"></path></svg>