<?xml version="1.0" standalone="no"?><!DOCTYPE svg PUBLIC "-//W3C//DTD SVG 1.1//EN" "http://www.w3.org/Graphics/SVG/1.1/DTD/svg11.dtd"><svg t="1502848952651" class="icon" style="" viewBox="0 0 1024 1024" version="1.1" xmlns="http://www.w3.org/2000/svg" p-id="2450" xmlns:xlink="http://www.w3.org/1999/xlink" width="200" height="200"><defs><style type="text/css"></style></defs><path d="M620.48 942.688l0-63.264c185.952-40.736 309.92-183.36 309.92-367.424 0-185.12-127.936-332.608-309.92-367.424L620.48 81.312C830.496 111.84 992.416 292.032 992.416 512S830.496 912.16 620.48 942.688zM465.504 881.536 186.56 696.768 93.568 696.768c-34.24 0-61.984-27.584-61.984-61.6L31.584 388.8c0-34.016 27.744-61.6 61.984-61.6L186.56 327.2l278.944-184.768c34.24 0 61.984 27.584 61.984 61.6l0 615.904C527.488 853.952 499.744 881.536 465.504 881.536zM186.56 419.616c0-16.992-13.888-30.784-31.008-30.784L124.576 388.832c-17.12 0-31.008 13.792-31.008 30.784l0 184.768c0 17.024 13.888 30.784 31.008 30.784l31.008 0c17.12 0 31.008-13.792 31.008-30.784L186.592 419.616zM465.504 819.968l-216.96-134.72c0-62.752 0-323.168 0-346.464l216.96-134.72C465.504 241.568 465.504 785.312 465.504 819.968zM806.432 512c0 108.512-80.96 197.408-185.952 212.448l0-61.6c70.72-14.272 123.968-76.384 123.968-150.88 0-74.496-53.248-136.608-123.968-150.88L620.48 299.52C725.472 314.592 806.432 403.488 806.432 512z" p-id="2451" fill="#59c5eb"></path></svg>