<?xml version="1.0" standalone="no"?><!DOCTYPE svg PUBLIC "-//W3C//DTD SVG 1.1//EN" "http://www.w3.org/Graphics/SVG/1.1/DTD/svg11.dtd"><svg t="1502849080163" class="icon" style="" viewBox="0 0 1024 1024" version="1.1" xmlns="http://www.w3.org/2000/svg" p-id="5526" xmlns:xlink="http://www.w3.org/1999/xlink" width="200" height="200"><defs><style type="text/css"></style></defs><path d="M157.538462 0h708.923076c86.646154 0 157.538462 70.892308 157.538462 157.538462v708.923076c0 86.646154-70.892308 157.538462-157.538462 157.538462H157.538462c-86.646154 0-157.538462-70.892308-157.538462-157.538462V157.538462c0-86.646154 70.892308-157.538462 157.538462-157.538462z" fill="#f4ea2a" p-id="5527" class="selected"></path><path d="M523.815385 200.861538c-7.876923-3.938462-19.692308-3.938462-27.569231 0 0 0-35.446154 27.569231-74.830769 55.138462C354.461538 307.2 334.769231 315.076923 330.830769 319.015385H224.492308c-19.692308 0-39.384615 7.876923-51.2 23.630769-7.876923 11.815385-15.753846 27.569231-15.753846 47.261538v208.738462c0 39.384615 31.507692 70.892308 70.892307 70.892308h31.507693c11.815385 0 23.630769-11.815385 23.630769-23.63077s-7.876923-23.630769-23.630769-23.630769h-27.569231c-11.815385 0-23.630769-11.815385-23.630769-23.630769V389.907692c0-7.876923 3.938462-23.630769 15.753846-23.630769h106.338461c11.815385 0 31.507692-3.938462 114.215385-63.015385 15.753846-11.815385 27.569231-19.692308 43.323077-31.507692v441.107692c-11.815385-7.876923-19.692308-15.753846-31.507693-27.56923-74.830769-59.076923-94.523077-66.953846-106.338461-66.953846-11.815385 0-23.630769 11.815385-23.630769 23.630769s7.876923 23.630769 23.630769 23.630769c3.938462 0 23.630769 7.876923 82.707692 59.076923 35.446154 27.569231 66.953846 55.138462 66.953846 55.138462 0 3.938462 7.876923 7.876923 11.815385 7.876923 3.938462 0 7.876923 0 11.815385-3.938462 7.876923-3.938462 15.753846-11.815385 15.753846-19.692308V220.553846c-3.938462-7.876923-7.876923-15.753846-15.753846-19.692308zM708.923077 240.246154c-11.815385-7.876923-27.569231 0-31.507692 7.876923-7.876923 11.815385 0 27.569231 11.815384 31.507692 78.769231 43.323077 129.969231 122.092308 129.969231 208.738462 0 86.646154-51.2 169.353846-129.969231 208.738461-11.815385 7.876923-15.753846 19.692308-11.815384 31.507693 3.938462 7.876923 11.815385 11.815385 19.692307 11.815384 3.938462 0 7.876923 0 11.815385-3.938461 94.523077-51.2 153.6-145.723077 153.6-252.061539 3.938462-98.461538-55.138462-192.984615-153.6-244.184615z" fill="#FFFFFF" p-id="5528"></path><path d="M712.861538 578.953846c15.753846-27.569231 23.630769-55.138462 23.63077-86.646154 0-31.507692-7.876923-63.015385-27.569231-86.646154-15.753846-27.569231-39.384615-47.261538-66.953846-59.076923-11.815385-7.876923-27.569231 0-31.507693 11.815385-7.876923 11.815385 0 27.569231 11.815385 31.507692 39.384615 19.692308 66.953846 59.076923 66.953846 106.338462 0 43.323077-23.630769 86.646154-66.953846 106.338461-11.815385 7.876923-15.753846 19.692308-11.815385 31.507693 3.938462 7.876923 11.815385 11.815385 23.63077 11.815384 3.938462 0 7.876923 0 11.815384-3.938461 27.569231-15.753846 51.2-35.446154 66.953846-63.015385z" fill="#FFFFFF" p-id="5529"></path></svg>