<?xml version="1.0" standalone="no"?><!DOCTYPE svg PUBLIC "-//W3C//DTD SVG 1.1//EN" "http://www.w3.org/Graphics/SVG/1.1/DTD/svg11.dtd"><svg t="1503046634220" class="icon" style="" viewBox="0 0 1024 1024" version="1.1" xmlns="http://www.w3.org/2000/svg" p-id="12723" xmlns:xlink="http://www.w3.org/1999/xlink" width="200" height="200"><defs><style type="text/css"></style></defs><path d="M456.35926 64.25442h86.750783c104.128569 9.649777 205.263967 54.096059 279.46083 128.33897 76.791967 74.78117 123.740232 178.058348 132.539642 284.688901l0.358157-18.627243v84.472903c-8.754385 101.715613-50.877761 200.659089-121.596405 274.722922-61.509912 65.358567-143.168724 111.50456-230.991932 130.174782-19.074428 4.197602-38.551014 6.073322-57.712423 9.649777h-71.384817c-99.704816-9.649777-196.685591-50.567699-269.769096-119.584586-64.506153-59.951417-110.695125-139.288347-130.617874-225.098711-5.362124-21.530362-7.326872-43.686988-11.347442-65.485457v-69.86623c9.202593-103.502305 52.889581-204.057489 126.152165-278.254352 74.735122-77.863369 178.63754-125.706003 286.026362-134.683468l-17.86795-0.448208z m26.846439 169.794127v102.69901c-24.880667 0.042979-49.718355-0.042979-74.599022 0v40.203654c24.880667 0.044002 49.718355-0.042979 74.599022 0 0.089028 41.72224-0.759293 83.356476-0.445139 125.077693-33.638121 0.042979-67.320245-0.042979-100.956319 0v40.204678c32.340569 0.044002 64.682161-0.089028 97.02273 0.044002-9.781784 58.029648-38.370913 115.384937-89.251743 147.548474 12.867052 11.078313 25.329898 22.734794 35.736922 36.228109 61.066821-40.069601 93.853551-112.214734 102.250802-182.973288 39.223327-1.87572 78.533634-0.402159 117.79994-0.804319-0.047072 61.020772 0 122.085546 0 183.109388 16.349363 0 32.697703 0.042979 49.047066-0.045025-0.088004-61.022819-0.045025-122.087593-0.045025-183.108365 36.273135-0.044002 72.547293 0.044002 108.819404 0v-40.204677c-36.272112-0.042979-72.54627 0.042979-108.819404 0V376.950188c28.723182-0.042979 57.402361 0.044002 86.079494-0.042979v-40.117696c-28.677133-0.086981-57.356312 0-86.079494-0.042979 0-34.218336-0.042979-68.434625 0.045025-102.69901-16.349363-0.088004-32.697703-0.042979-49.047066-0.042979 0 34.261315-0.047072 68.480674 0.042979 102.69901-38.237883 0.086981-76.475765 0.042979-114.670669 0.042979-0.042979-34.262338 0-68.480674-0.042979-102.743012-15.813151 0.001023-31.673373-0.042979-47.486524 0.045025z m-227.239468 33.860179c28.187993 34.977629 53.157687 72.278163 77.592192 109.936855 13.625322-10.365068 27.564799-20.326954 42.036396-29.572526-24.345478-37.522592-53.827953-71.429843-81.926918-106.183368-12.81998 8.219195-25.237801 17.10968-37.70167 25.819039z m-26.669406 171.625846c0.089028 14.96483-0.223081 29.885658 0.358157 44.805461 23.319102-0.358157 46.636157-0.135076 69.955258-0.179078 0 65.35345 0.044002 130.661875 0 195.971323-25.417903 24.034393-50.478671 48.420803-75.091232 73.260538 8.397251 16.214287 16.304338 32.657794 24.479531 48.958038 22.960944-26.535353 44.893466-54.097082 70.356394-78.351486 11.703553 18.898419 28.321022 34.619472 47.842635 45.251624 30.777981 17.331737 66.828035 20.774139 101.490485 21.441335 107.793028 2.775206 215.716017 1.473561 323.553048 1.429558 5.094018-16.794501 11.479449-33.232892 16.172331-50.166563-66.918086 2.324952-134.014226 1.831718-200.930266 5.675256-50.745754-0.310062-101.404528-3.484358-152.150282-3.708461-41.678238-0.401136-84.695984-17.959024-108.773355-53.156664 0.312108-83.758636 0-167.516248 0.178055-251.229858-39.176254-0.045025-78.307484-0.088004-117.440759-0.001023z" fill="#13ce66" p-id="12724" class="selected"></path><path d="M530.736225 376.951211c38.193881 0 76.431763-0.042979 114.62769 0.044002-0.047072 41.678238 0 83.313497 0 124.991736-38.194904 0.085958-76.432787 0.042979-114.62769 0.042979-0.042979-41.678238-0.042979-83.400478 0-125.078717z" fill="#13ce66" p-id="12725" class="selected"></path><path d="M483.205699 234.048547c15.813151-0.088004 31.673373-0.042979 47.487547-0.042979 0.042979 34.261315 0 68.480674 0.042979 102.743012 38.193881 0 76.431763 0.042979 114.670669-0.042978-0.090051-34.218336-0.042979-68.437695-0.042979-102.69901 16.349363 0 32.697703-0.044002 49.047066 0.042978-0.088004 34.264385-0.045025 68.480674-0.045025 102.69901 28.723182 0.042979 57.402361-0.042979 86.079494 0.042979v40.117697c-28.677133 0.086981-57.356312 0-86.079494 0.042978v125.077694c36.273135 0.042979 72.547293-0.042979 108.819404 0v40.204677c-36.272112 0.044002-72.54627-0.044002-108.819404 0 0 61.021795-0.042979 122.086569 0.045025 183.108364-16.349363 0.088004-32.697703 0.045025-49.047066 0.045026 0-61.024865-0.047072-122.089639 0-183.109388-39.266305 0.403183-78.576613-1.071402-117.799939 0.804319-8.397251 70.75753-41.183981 142.902664-102.250802 182.973288-10.407024-13.494339-22.86987-25.149796-35.736923-36.228109 50.880831-32.16456 79.469959-89.518826 89.251744-147.548475-32.340569-0.13303-64.683185 0-97.022731-0.044002v-40.204677c33.636075-0.042979 67.318198 0.042979 100.95632 0-0.314155-41.721217 0.534166-83.356476 0.445138-125.077693-24.880667-0.042979-49.718355 0.044002-74.599022 0v-40.203654c24.880667-0.042979 49.718355 0.042979 74.599022 0l-0.001023-102.701057z m47.530526 142.902664c-0.042979 41.678238-0.042979 83.400478 0 125.077693 38.193881 0 76.431763 0.042979 114.62769-0.042978 0-41.678238-0.047072-83.313497 0-124.991736-38.194904-0.085958-76.432787-0.042979-114.62769-0.042979zM255.966231 267.908726c12.463869-8.709359 24.88169-17.599843 37.702693-25.819039 28.097942 34.753525 57.58144 68.660776 81.926918 106.183368-14.47262 9.245572-28.411073 19.207457-42.036395 29.572526-24.435529-37.657668-49.405223-74.959226-77.593216-109.936855z" fill="#FEFEFE" p-id="12726"></path><path d="M229.296825 439.534572c39.133276-0.086981 78.263481-0.044002 117.439736 0-0.178055 83.71361 0.134053 167.472246-0.178056 251.229858 24.077372 35.19764 67.095118 52.756551 108.773356 53.156663 50.745754 0.224104 101.404528 3.3984 152.150282 3.708462 66.916039-3.843538 134.01218-3.349281 200.930265-5.675256-4.692882 16.934694-11.078313 33.372062-16.172331 50.166563-107.83703 0.044002-215.760019 1.344624-323.553047-1.429559-34.663474-0.667196-70.712505-4.110621-101.490485-21.441334-19.521612-10.632151-36.139082-26.353205-47.842635-45.251624-25.463951 24.254404-47.39545 51.817156-70.356394 78.351486-8.175193-16.300244-16.08228-32.743752-24.479531-48.958039 24.612561-24.838711 49.673329-49.225121 75.091232-73.260537 0.044002-65.309448 0-130.618896 0-195.971323-23.319102 0.042979-46.636157-0.179079-69.955258 0.179078-0.580215-14.918781-0.267083-29.839609-0.357134-44.804438z" fill="#FEFEFE" p-id="12727"></path></svg>