<?xml version="1.0" standalone="no"?><!DOCTYPE svg PUBLIC "-//W3C//DTD SVG 1.1//EN" "http://www.w3.org/Graphics/SVG/1.1/DTD/svg11.dtd"><svg t="1504340727595" class="icon" style="" viewBox="0 0 1024 1024" version="1.1" xmlns="http://www.w3.org/2000/svg" p-id="22931" xmlns:xlink="http://www.w3.org/1999/xlink" width="200" height="200"><defs><style type="text/css"></style></defs><path d="M511.937462 0C229.139856 0 0 229.139856 0 511.937462s229.139856 511.937462 511.937462 511.937462 511.937462-229.139856 511.937462-511.937462S794.735068 0 511.937462 0z m56.909735 853.270795h-113.81947v-113.81947h113.81947v113.81947z m129.579089-371.101502c-55.658972 84.926835-128.453402 97.309393-128.453402 200.247221h-115.570539v-33.645536c-2.126298-65.039697 28.142177-117.821913 87.428362-158.096494 61.412483-44.902406 81.799927-57.660193 81.799927-120.32344 0-68.041529-66.540613-86.677904-112.568707-86.677904-76.921949 0-112.943936 59.161109-112.943935 114.945157l-113.319165-0.375229c0-163.474777 125.076341-227.138634 253.654819-227.138634 120.698669 0 200.872603 90.054965 200.997679 174.856724 0.125076 53.907903-11.006718 92.306339-41.025039 136.208135z" fill="#ffffff" p-id="22932"></path></svg>