<?xml version="1.0" standalone="no"?><!DOCTYPE svg PUBLIC "-//W3C//DTD SVG 1.1//EN" "http://www.w3.org/Graphics/SVG/1.1/DTD/svg11.dtd"><svg t="1504855424982" class="icon" style="" viewBox="0 0 1024 1024" version="1.1" xmlns="http://www.w3.org/2000/svg" p-id="9944" xmlns:xlink="http://www.w3.org/1999/xlink" width="200" height="200"><defs><style type="text/css"></style></defs><path d="M874.851104 512l-78.880697 0L795.970407 291.142893c0-25.319665-3.333045-49.857525-9.551931-73.219605C754.123655 96.591919 643.51405 7.18361 511.999488 7.18361s-242.124167 89.409332-274.418987 210.739678c-6.218887 23.362081-9.551931 47.89994-9.551931 73.219605l0 220.857107-78.880697 0c-26.144498 0-47.327804 21.182438-47.327804 47.326888l0 410.163637c0 26.142403 21.183306 47.325865 47.327804 47.325865l725.703231 0c26.144498 0 47.327804-21.183462 47.327804-47.325865L922.178908 559.326888C922.178908 533.182438 900.995602 512 874.851104 512zM606.434054 707.800431c-2.207362 32.16763-20.690052 59.666938-47.105738 75.032904l0 92.003414c0 26.142403-21.18433 47.325865-47.328828 47.325865s-47.328828-21.183462-47.328828-47.325865l0-92.003414c-26.415685-15.366989-44.899399-42.866297-47.105738-75.032904-0.147362-2.14485-0.222067-4.310166-0.222067-6.493901 0-0.817622 0.010233-1.632173 0.0307-2.443655 1.296582-51.15917 43.168917-92.210122 94.625931-92.210122 51.457014 0 93.329349 41.050951 94.625931 92.210122 0.02149 0.811482 0.0307 1.626034 0.0307 2.443655C606.65612 703.490266 606.581416 705.655582 606.434054 707.800431zM322.686225 512 322.686225 291.142893c0-6.53381 0.331565-12.990872 0.977297-19.354813 9.533511-93.862761 87.654884-167.463036 183.450502-169.890318 1.624053-0.041956 3.2522-0.062422 4.885464-0.062422s3.262434 0.020466 4.885464 0.062422c95.794595 2.427282 173.915968 76.027557 183.450502 169.890318 0.646756 6.363941 0.977297 12.81998 0.977297 19.354813l0 220.857107L322.686225 512z" p-id="9945" fill="#d81e06"></path></svg>