<?xml version="1.0" standalone="no"?><!DOCTYPE svg PUBLIC "-//W3C//DTD SVG 1.1//EN" "http://www.w3.org/Graphics/SVG/1.1/DTD/svg11.dtd"><svg t="1506752099094" class="icon" style="" viewBox="0 0 1024 1024" version="1.1" xmlns="http://www.w3.org/2000/svg" p-id="30289" xmlns:xlink="http://www.w3.org/1999/xlink" width="150" height="150"><defs><style type="text/css"></style></defs><path d="M512 227.95264c-156.58496 0-284.04736 127.45728-284.04736 284.04736 0 156.59008 127.45728 284.04736 284.04736 284.04736 156.59008 0 284.04736-127.45728 284.04736-284.04736 0-156.58496-127.45728-284.04736-284.04736-284.04736z m137.96352 121.66144l-112.59904 149.84704h76.07808a20.25984 20.25984 0 0 1 20.29056 20.29056 20.25984 20.25984 0 0 1-20.29056 20.29056h-81.15712v40.576h81.15712c11.23328 0 20.29056 9.0624 20.29056 20.29056s-9.05728 20.28544-20.29056 20.28544h-81.15712v60.87168h-0.0768c0 0.14336 0.0768 0.3584 0.0768 0.50688a20.25984 20.25984 0 0 1-20.29056 20.29056 20.25472 20.25472 0 0 1-20.29056-20.29056c0-0.14336 0.07168-0.3584 0.07168-0.50688h-0.07168v-60.87168H410.55744c-11.23328 0-20.28544-9.05728-20.28544-20.28544s9.05728-20.29056 20.28544-20.29056h81.15712v-40.576H410.55744a20.25472 20.25472 0 0 1-20.28544-20.29056 20.25472 20.25472 0 0 1 20.28544-20.29056h76.0832L374.10816 349.61408a20.24448 20.24448 0 0 1 3.98336-28.40576 20.22912 20.22912 0 0 1 28.40576 3.98336L512 465.69984l105.50272-140.50304c6.7328-8.84224 19.42016-10.79296 28.47744-3.98336a20.29568 20.29568 0 0 1 3.98336 28.40064z" p-id="30290" fill="#1296db"></path><path d="M512.6144 23.04c-270.75072 0-490.24 219.48928-490.24 490.24S241.86368 1003.52 512.6144 1003.52c270.75584 0 490.24-219.48928 490.24-490.24S783.37024 23.04 512.6144 23.04zM512 836.62336c-179.27168 0-324.62336-145.36192-324.62336-324.62336 0-179.27168 145.3568-324.62336 324.62336-324.62336s324.62336 145.3568 324.62336 324.62336-145.3568 324.62336-324.62336 324.62336z" p-id="30291" fill="#1296db"></path></svg>