<?xml version="1.0" standalone="no"?><!DOCTYPE svg PUBLIC "-//W3C//DTD SVG 1.1//EN" "http://www.w3.org/Graphics/SVG/1.1/DTD/svg11.dtd"><svg t="1503624764299" class="icon" style="" viewBox="0 0 1024 1024" version="1.1" xmlns="http://www.w3.org/2000/svg" p-id="25537" xmlns:xlink="http://www.w3.org/1999/xlink" width="200" height="200"><defs><style type="text/css"></style></defs><path d="M671.091579 436.163915c-51.327711 2.797482-78.451122 37.097042-81.248605 102.655422 1.946074 64.585343 28.461337 98.398385 79.789049 101.195867 52.300748-0.973037 78.816011-34.664449 79.789048-101.195867-1.824445-65.68001-27.974819-99.85794-78.329492-102.655422z" fill="#f05040" p-id="25538"></path><path d="M512 90.978976c-247.516332 0-448.20525 200.688918-448.20525 448.20525s200.688918 448.20525 448.20525 448.20525 448.20525-200.688918 448.20525-448.20525-200.688918-448.20525-448.20525-448.20525z m-34.786079 603.161421H404.601021L280.538781 497.465257c-5.716593-9.487112-10.095261-15.933484-15.811854-25.420596l0.12163 222.217365h-66.896306V380.579166h76.991567l119.683572 192.418102c0.973037 1.946074 12.162965 19.704003 15.690225 26.028745V380.579166h67.017936v313.561231z m195.337213 5.716593C573.666231 694.140397 521.487112 640.501722 515.770519 538.819337c4.743556-104.479867 57.044305-158.72669 156.780615-162.497208C769.489963 381.917092 821.304193 436.163915 827.872194 538.819337c-5.716593 101.682385-57.530823 155.32106-155.32106 161.037653z" fill="#f05040" p-id="25539"></path></svg>