<?xml version="1.0" standalone="no"?><!DOCTYPE svg PUBLIC "-//W3C//DTD SVG 1.1//EN" "http://www.w3.org/Graphics/SVG/1.1/DTD/svg11.dtd"><svg t="1503026879655" class="icon" style="" viewBox="0 0 1024 1024" version="1.1" xmlns="http://www.w3.org/2000/svg" p-id="7646" xmlns:xlink="http://www.w3.org/1999/xlink" width="200" height="200"><defs><style type="text/css"></style></defs><path d="M512 992c-265.098 0-480-214.922-480-480 0-265.113 214.902-480 480-480s480 214.887 480 480c0 265.078-214.907 480-480 480zM512.030 95.837c-229.809 0-416.104 186.284-416.104 416.104 0 229.805 186.294 416.104 416.104 416.104 229.799 0 416.098-186.299 416.098-416.104 0-229.819-186.299-416.104-416.098-416.104zM291.402 747.062v-64.867c0 0 110.513-65.393 224.537-65.393 113.014 0 216.472 65.393 216.472 65.393v64.867c0 0-104.31-65.383-216.472-65.383-114.846 0-224.537 65.383-224.537 65.383zM645.396 493.784c-36.185 0-65.516-48.763-65.516-108.889 0-60.15 29.332-108.923 65.516-108.923s65.516 48.773 65.516 108.923c-0.005 60.126-29.336 108.889-65.516 108.889zM385.393 493.784c-36.185 0-65.516-48.763-65.516-108.889 0-60.15 29.332-108.923 65.516-108.923s65.512 48.773 65.512 108.923c0 60.126-29.332 108.889-65.512 108.889z" p-id="7647" fill="#59c5eb"></path></svg>