<?xml version="1.0" standalone="no"?><!DOCTYPE svg PUBLIC "-//W3C//DTD SVG 1.1//EN" "http://www.w3.org/Graphics/SVG/1.1/DTD/svg11.dtd"><svg t="1506762692936" class="icon" style="" viewBox="0 0 1024 1024" version="1.1" xmlns="http://www.w3.org/2000/svg" p-id="3347" xmlns:xlink="http://www.w3.org/1999/xlink" width="150" height="150"><defs><style type="text/css"></style></defs><path d="M670.281169 233.028868a2.287961 2.287961 0 0 0-2.082045-2.093485H356.841898a2.287961 2.287961 0 0 0-2.082045 2.093485v95.076235h315.521316zM751.904192 676.573063l1.407096-39.192779h-59.567075c0.526231-10.364465 1.052462-21.792832 1.224059-29.171508h-19.447671c-0.354634 8.259541-0.526231 18.452409-1.052463 29.171508h-49.214049v17.617303h48.344624v1.578693c-2.97435 56.249531-11.439807 73.649477-54.133166 101.242292 4.198409 4.919117 9.632317 11.073733 13.144338 15.638216 45.896505-30.761641 56.581285-51.673608 60.264903-117.578336v-0.880865h41.183305c-0.697828 24.607025-1.75029 53.606935-2.802753 74.873536-0.880865 16.347484-5.250871 20.591653-19.264635 20.591653-8.408258 0-19.093038-0.171597-28.199124-0.880865 1.578693 6.49781 2.97435 12.126195 4.198409 19.859505 4.026812 0 15.935651-0.171597 28.908392-0.526231 23.302887-0.697828 31.711145-9.838234 32.935205-34.319421 0.697828-14.059523 1.224059-31.814103 1.921887-49.740281 5.777103 11.24533 12.43507 24.252391 18.566807 37.431048l16.461882-8.431137c-7.882027-14.768791-14.711592-27.066583-23.646081-42.887837zM283.947448 375.12271a26.929306 26.929306 0 0 0-27.055143 27.169541c0 14.631513 12.492269 27.169542 27.078023 27.169542s27.078023-12.583788 27.078023-27.169542a26.929306 26.929306 0 0 0-27.100903-27.169541z" fill="#1296db" p-id="3348"></path><path d="M512 0C229.230852 0 0 229.230852 0 512s229.230852 512 512 512 512-229.230852 512-512S794.769148 0 512 0zM357.882921 810.819197a35.177406 35.177406 0 0 1-35.406203-35.5206V657.285548h-102.054518a20.923407 20.923407 0 0 1-20.831888-20.900527V349.005631a20.923407 20.923407 0 0 1 20.831888-20.900528h103.095541V233.028868a32.946644 32.946644 0 0 1 33.324157-33.438556h309.275181a32.946644 32.946644 0 0 1 33.324158 33.438556v95.076235h103.12986a20.923407 20.923407 0 0 1 20.831888 20.900528v225.684511a172.523729 172.523729 0 0 0-128.125838-56.421128 201.626598 201.626598 0 0 0-24.995978 2.093485v-16.724998a4.484404 4.484404 0 0 0-4.16409-4.175529H358.923943a4.484404 4.484404 0 0 0-4.16409 4.175529v271.661096a4.484404 4.484404 0 0 0 4.16409 4.175529h185.324873a168.165162 168.165162 0 0 0 21.872911 31.345071z m37.431048-212.09402a16.01573 16.01573 0 0 1-15.615336-15.672536c0-8.362499 7.287157-15.672536 15.615336-16.713558h180.211279c-9.369202 10.444544-18.749844 20.900527-26.037001 32.386094zM524.44651 663.508803a142.311198 142.311198 0 0 0-3.123067 30.304049v1.041022H395.313969a15.672536 15.672536 0 0 1 0-31.345071z m169.789615 160.900885c-71.853427 0-130.173563-58.514613-130.173564-130.608276s58.343015-130.608276 130.173564-130.608276 130.173563 58.514613 130.173563 130.608276-58.320136 130.608276-130.173563 130.608276z" fill="#1296db" p-id="3349"></path><path d="M657.136831 676.401466l-16.461882-7.035482a261.491107 261.491107 0 0 1-23.428725 45.530432c4.209849 2.287961 10.856377 6.154616 15.592457 9.151846 8.87729-16.01573 17.468585-32.706408 24.29815-47.646796z" fill="#1296db" p-id="3350"></path></svg>