<?xml version="1.0" standalone="no"?><!DOCTYPE svg PUBLIC "-//W3C//DTD SVG 1.1//EN" "http://www.w3.org/Graphics/SVG/1.1/DTD/svg11.dtd"><svg t="1506762760292" class="icon" style="" viewBox="0 0 1024 1024" version="1.1" xmlns="http://www.w3.org/2000/svg" p-id="6176" xmlns:xlink="http://www.w3.org/1999/xlink" width="150" height="150"><defs><style type="text/css"></style></defs><path d="M512 512m-512 0a512 512 0 1 0 1024 0 512 512 0 1 0-1024 0Z" fill="#10ae49" p-id="6177" class="selected"></path><path d="M379.648 475.264a115.2 115.2 0 0 1 15.296-6.656L392.192 448l13.312-3.776 8.064 19.2c5.504-1.088 11.008-1.792 16.448-2.24l2.496-20.608h13.824l3.072 20.608c5.504 0.448 11.008 1.216 16.448 2.24l7.488-19.328 13.376 3.776-2.304 20.736c5.248 1.856 10.368 4.096 15.36 6.656l12.032-16.64 11.968 7.168-7.232 19.392c4.48 3.2 8.96 6.656 13.12 10.56l15.808-12.864 9.728 10.112-11.904 16.896c3.648 4.288 7.04 8.832 10.112 13.632l18.496-8.128 6.848 12.48-15.68 12.992c2.496 5.248 4.608 10.496 6.4 15.872l19.904-2.88 3.52 13.888-18.432 8.384c1.024 5.632 1.728 11.328 2.176 17.088l19.904 2.56v14.336l-19.968 3.072a170.624 170.624 0 0 1-2.112 17.088l18.624 7.808-3.648 13.888-20.032-2.368a155.072 155.072 0 0 1-6.4 15.872l16 12.48-6.848 12.544-18.752-7.616a138.24 138.24 0 0 1-10.112 13.568l12.352 16.448-9.856 10.176-16.128-12.288a142.656 142.656 0 0 1-13.184 10.368l7.808 19.2-11.968 7.168-12.544-16.384a139.456 139.456 0 0 1-15.296 6.592l2.752 20.672-13.376 3.648-8-19.136a121.728 121.728 0 0 1-16.512 2.24l-2.496 20.608h-13.76l-3.072-20.608a141.12 141.12 0 0 1-16.448-2.24l-7.488 19.328-13.376-3.84 2.24-20.736a124.288 124.288 0 0 1-15.36-6.528l-12.096 16.64-11.968-7.296 7.296-19.392a172.928 172.928 0 0 1-13.12-10.368l-15.872 12.736-9.728-10.24 11.968-16.832a136.256 136.256 0 0 1-10.048-13.632l-18.496 8.064-6.848-12.352 15.744-12.992a135.744 135.744 0 0 1-6.4-15.936l-19.904 2.944-3.584-13.824 18.432-8.384a128.768 128.768 0 0 1-2.24-17.088l-19.968-2.56 0.128-14.4 19.968-3.136c0.384-5.696 1.152-11.52 2.112-17.024l-18.624-7.808 3.584-13.888 20.032 2.368c1.792-5.376 3.904-10.752 6.4-15.936l-16.128-12.544 6.976-12.352 18.752 7.616c3.072-4.8 6.464-9.344 10.048-13.76l-12.288-16.32 9.792-10.048 16.192 12.352c4.096-3.84 8.576-7.296 13.12-10.56l-7.744-19.136 11.968-7.168 12.608 16.384zM566.592 287.36l-10.432-12.352-9.152 6.016 6.656 14.848a115.648 115.648 0 0 0-10.048 8.64l-13.056-9.28-7.424 8.256 10.176 12.48a148.544 148.544 0 0 0-7.616 11.072l-14.976-5.44-5.056 10.048 12.928 9.344a116.16 116.16 0 0 0-4.544 12.736l-15.808-1.152-2.432 10.944 14.848 5.632c-0.576 4.416-1.088 8.96-1.216 13.504l-15.552 3.072 0.448 11.264 15.744 1.408c0.384 4.48 1.152 8.896 2.112 13.376l-14.272 7.168 3.2 10.752 15.552-2.944c1.536 4.224 3.392 8.384 5.504 12.352l-12.032 10.752 5.824 9.6 14.272-6.976c2.56 3.776 5.376 7.168 8.32 10.496l-8.896 13.504 7.936 7.744 12.032-10.496c3.456 2.752 6.976 5.376 10.752 7.744l-5.184 15.552 9.6 5.312 9.088-13.376c3.968 1.792 8.064 3.392 12.16 4.672l-1.088 16.384 10.624 2.496 5.376-15.36c4.224 0.704 8.64 1.152 12.992 1.28l3.008 16.064 10.88-0.32 1.28-16.384c4.288-0.512 8.64-1.216 12.928-2.304l6.784 14.848 10.432-3.392-2.688-16.064a101.12 101.12 0 0 0 11.904-5.696l10.368 12.48 9.28-6.016-6.72-14.784c3.584-2.752 6.912-5.632 10.048-8.768l13.184 9.344 7.36-8.384-10.112-12.48c2.752-3.52 5.248-7.232 7.488-11.008l14.976 5.376 5.056-9.984-12.928-9.344c1.728-4.096 3.264-8.384 4.48-12.608l15.872 1.216 2.368-11.072-14.848-5.632c0.704-4.48 1.152-8.96 1.344-13.44l15.552-3.072-0.384-11.264-15.744-1.472a134.4 134.4 0 0 0-2.24-13.312l14.272-7.168-3.2-10.752-15.552 2.816a104.128 104.128 0 0 0-5.44-12.288l12.032-10.752-5.824-9.536-14.336 6.912a120.32 120.32 0 0 0-8.32-10.368l8.896-13.632-7.936-7.616-12.096 10.496a110.976 110.976 0 0 0-10.624-7.872l5.12-15.488-9.536-5.248-9.088 13.376a129.408 129.408 0 0 0-12.224-4.672l1.152-16.384-10.624-2.56-5.504 15.36a97.152 97.152 0 0 0-12.992-1.344l-2.88-16.128-11.008 0.384-1.28 16.384a98.368 98.368 0 0 0-12.864 2.24l-6.976-14.72-10.368 3.2 2.752 16.128a124.8 124.8 0 0 0-11.84 5.632z m32.064 65.088a36.352 36.352 0 0 1 28.608-3.904c9.344 2.56 17.728 8.96 22.848 18.24a40.128 40.128 0 0 1-13.824 53.44c-8.96 5.376-19.264 6.528-28.608 3.904s-17.664-8.896-22.848-18.24-6.272-20.032-3.776-29.696 8.64-18.304 17.6-23.744z m25.792 7.488a26.24 26.24 0 0 1 15.936 12.736 28.096 28.096 0 0 1-9.664 37.376 25.792 25.792 0 0 1-36.032-10.048 28.096 28.096 0 0 1 9.664-37.44 25.92 25.92 0 0 1 20.096-2.624z m9.984-49.984a73.472 73.472 0 0 0-57.024 9.92 78.144 78.144 0 0 0-33.6 48.896c-4.224 19.52-1.408 40.832 9.6 59.2 11.136 18.368 28.288 30.272 47.168 34.752 18.88 4.48 39.36 1.536 57.024-9.984 17.664-11.392 29.184-29.312 33.536-48.832a81.472 81.472 0 0 0-9.6-59.264 75.648 75.648 0 0 0-47.104-34.688zM420.8 569.28a38.784 38.784 0 0 0-17.536 23.744 40.512 40.512 0 0 0 3.776 29.696 37.056 37.056 0 0 0 51.456 14.4 38.656 38.656 0 0 0 17.536-23.744 40.576 40.576 0 0 0-3.648-29.76 36.864 36.864 0 0 0-51.584-14.336z m25.792 7.488a25.536 25.536 0 0 0-20.032 2.624 27.968 27.968 0 0 0-9.728 37.44 25.6 25.6 0 0 0 36.032 10.048 27.968 27.968 0 0 0 9.728-37.376 26.56 26.56 0 0 0-16-12.736z m18.112-69.632a92.48 92.48 0 0 0-72.896 9.856c-22.912 13.632-38.4 35.648-44.736 60.224s-3.776 51.712 9.344 75.52c13.312 23.872 34.496 39.808 58.24 46.528 23.68 6.656 49.856 3.904 72.896-9.792 22.848-13.824 38.4-35.776 44.736-60.288a102.4 102.4 0 0 0-9.408-75.52 95.936 95.936 0 0 0-58.176-46.528z" fill="#FFFFFF" p-id="6178"></path></svg>