<?xml version="1.0" standalone="no"?><!DOCTYPE svg PUBLIC "-//W3C//DTD SVG 1.1//EN" "http://www.w3.org/Graphics/SVG/1.1/DTD/svg11.dtd"><svg t="1506762656017" class="icon" style="" viewBox="0 0 1024 1024" version="1.1" xmlns="http://www.w3.org/2000/svg" p-id="2416" xmlns:xlink="http://www.w3.org/1999/xlink" width="150" height="150"><defs><style type="text/css"></style></defs><path d="M511.488511 1.022977C229.146853 1.022977 0 230.16983 0 512.511489s229.146853 511.488511 511.488511 511.488511 511.488511-229.146853 511.488512-511.488511S793.83017 1.022977 511.488511 1.022977z m247.048952 732.451548c0 14.321678-11.764236 25.574426-25.574426 25.574426H292.05994c-14.321678 0-25.574426-11.764236-25.574426-25.574426V292.571429c0-13.298701 10.22977-24.551449 24.039961-26.085915h444.483516c13.81019 1.534466 24.03996 12.787213 24.03996 26.085915v440.903096z" fill="#f4ea2a" p-id="2417"></path><path d="M496.143856 299.220779H299.220779v195.9001H496.143856V299.220779z m-36.827173 106.901099h-48.07992v51.148851c0 7.160839-6.137862 13.298701-13.298701 13.298702-7.160839 0-13.298701-6.137862-13.298701-13.298702v-51.148851h-48.591409c-7.160839 0-13.298701-6.137862-13.298701-13.298701 0-7.160839 6.137862-13.298701 13.298701-13.298701h48.591409v-45.522478c0-7.160839 6.137862-13.298701 13.298701-13.298701 7.160839 0 13.298701 6.137862 13.298701 13.298701v45.522478h48.07992c7.160839 0 13.298701 6.137862 13.298702 13.298701 0 7.160839-6.137862 13.298701-13.298702 13.298701zM528.879121 726.825175H726.313686v-199.48052h-197.434565v199.48052z m36.827173-149.354646h123.268731c7.160839 0 13.298701 6.137862 13.298701 13.298702 0 7.160839-6.137862 13.298701-13.298701 13.298701h-123.268731c-7.160839 0-13.298701-6.137862-13.298702-13.298701 0-7.160839 5.626374-13.298701 13.298702-13.298702z m0 72.631369h123.268731c7.160839 0 13.298701 6.137862 13.298701 13.298701 0 7.160839-6.137862 13.298701-13.298701 13.298702h-123.268731c-7.160839 0-13.298701-6.137862-13.298702-13.298702 0-7.672328 5.626374-13.298701 13.298702-13.298701zM299.220779 726.825175H496.143856v-199.48052H299.220779v199.48052z m46.545455-132.987013c-5.114885-5.114885-5.114885-13.81019 0-18.925075s13.81019-5.114885 18.925075 0l32.223776 32.223776 33.758242-33.758242c5.114885-5.114885 13.81019-5.114885 18.925075 0s5.114885 13.81019 0 18.925075l-33.758242 33.758242 36.315684 36.315684c5.114885 5.114885 5.114885 13.81019 0 18.925075s-13.81019 5.114885-18.925075 0l-36.315684-36.315684-34.26973 34.26973c-5.114885 5.114885-13.81019 5.114885-18.925075 0s-5.114885-13.81019 0-18.925075l34.26973-34.26973-32.223776-32.223776zM528.879121 495.120879H726.313686V299.220779h-197.434565v195.9001z m36.827173-115.596403h123.268731c7.160839 0 13.298701 6.137862 13.298701 13.298701 0 7.160839-6.137862 13.298701-13.298701 13.298701h-123.268731c-7.160839 0-13.298701-6.137862-13.298702-13.298701 0-7.672328 5.626374-13.298701 13.298702-13.298701z" fill="#f4ea2a" p-id="2418"></path></svg>