<?xml version="1.0" standalone="no"?><!DOCTYPE svg PUBLIC "-//W3C//DTD SVG 1.1//EN" "http://www.w3.org/Graphics/SVG/1.1/DTD/svg11.dtd"><svg t="1506762911108" class="icon" style="" viewBox="0 0 1061 1024" version="1.1" xmlns="http://www.w3.org/2000/svg" p-id="7494" xmlns:xlink="http://www.w3.org/1999/xlink" width="155.419921875" height="150"><defs><style type="text/css"></style></defs><path d="M4.507576 512c0 282.77 229.8 512 513.27125 512s513.2725-229.23 513.2725-512c0-282.76875-229.80125-512-513.2725-512S4.507576 229.23 4.507576 512z" fill="#15C5BD" p-id="7495"></path><path d="M351.928826 394.0575h12.12v88.8075c0 38.375 23.145 58.11125 26.45125 61.3975 14.32125 13.15375 33.0575 20.83125 51.79375 20.83125h148.77375c18.73625 0 37.4725-6.57875 51.79375-19.73625 26.44625-21.925 26.44625-54.82 26.44625-55.91375v-94.2875h11.02125c8.81875 0 16.52875-5.48 20.9425-14.25125 6.6125-12.05875 0-21.925-5.5125-26.31625L545.881326 205.4825c-7.715-7.6775-17.63125-12.06375-27.555-12.06375-17.63125 0-29.7525 12.06375-30.86 13.1575L356.333826 337.05c-6.6125 6.575-18.73625 17.53875-18.73625 18.63375-4.405 4.385-9.9175 14.25625-5.5125 25.22125 4.41375 10.965 14.33125 13.1525 19.84375 13.1525z m115.7125 38.375c-6.6125 0-11.02125-5.485-11.02125-10.965 0-5.485 4.40875-10.965 11.02125-10.965h29.75125l-33.0575-53.725c-2.2075-1.09375-2.2075-4.38625-2.2075-6.57375 1.10375-3.2925 3.30625-5.485 6.6125-6.57875 5.5125-2.19375 11.02 0 14.32625 3.28625l34.16625 53.725 34.16125-53.725c3.3075-4.385 9.91875-6.57375 14.32625-3.28625 2.20875 0 3.3075 2.1925 4.405 3.28625v1.09875l1.10375 1.095c1.09875 2.1925 1.09875 5.48 0 7.6725l-3.30625 5.485-29.7575 48.24h29.7575c6.61125 0 11.01625 5.48 11.01625 10.965 0 5.48-4.40375 10.965-11.01625 10.965h-39.67375v10.96375h38.56875c6.6125 0 11.02125 5.485 11.02125 10.965 0 5.485-5.5125 10.965-11.02125 10.965h-38.56875v20.83c0 5.485-4.405 9.86625-11.01625 9.86625-6.61125 0-9.9225-4.385-9.9225-9.86625v-20.83h-39.66875c-5.51375 0-11.02125-5.48-11.02125-10.965 0-5.48 4.40875-10.965 11.02125-10.965h38.57v-10.96375h-38.57z m362.99625 234.95875c-13.125-17.76875-46.15-10.73125-62.29125-2.1-24.91875 13.3075-99.945 70.3525-126.88875 73.36625-26.67125 3.02125-98.87875-1.6825-150.22375-5.98375-58.11125-4.83875-35.4525-25.7625-26.255-27.9975 9.2025-2.24 120.52875-7.59 157.71-11.38125 33.47-3.42125 28.64-32.75875-9.08-33.945-37.72125-1.14625-208.6525-11.42-266.12-7.9925-57.5025 3.4325-141.475 71.7225-141.475 71.7225l3.14125 10.82 122.46875 96.67125 16.3325-1.13625s30.01375-15.34875 54.9875-19.97 162.96125 8.87 210.6025 2.6975c47.645-6.16875 170.40875-97.495 197.3475-117.41 13.09875-9.715 22.46-23.61625 19.74375-27.36125z" fill="#FFFFFF" p-id="7496"></path></svg>