<?xml version="1.0" standalone="no"?><!DOCTYPE svg PUBLIC "-//W3C//DTD SVG 1.1//EN" "http://www.w3.org/Graphics/SVG/1.1/DTD/svg11.dtd"><svg t="1503046713154" class="icon" style="" viewBox="0 0 1024 1024" version="1.1" xmlns="http://www.w3.org/2000/svg" p-id="15392" xmlns:xlink="http://www.w3.org/1999/xlink" width="200" height="200"><defs><style type="text/css"></style></defs><path d="M464.729905 62.896492h100.105952c36.005029 9.871835 73.395614 15.276938 107.926058 30.019711 116.54639 44.760436 211.964576 140.80284 255.740592 257.749342 14.605649 36.228109 21.306258 74.870198 28.857235 113.019053v100.153024c-9.243525 33.81413-14.382569 68.835761-27.608801 101.490486-44.579311 121.685433-144.866389 221.567281-267.219018 264.58912-31.491225 12.284791-65.041342 17.509792-97.516987 26.4013h-100.241029c-37.032428-7.371898-74.556043-13.758352-109.84578-27.608801C234.406193 884.661511 135.592676 785.807063 91.502505 665.285129c-13.000082-32.654724-18.226107-67.543326-27.561729-101.269452v-100.241028c7.370875-37.032428 13.713326-74.557066 27.51875-109.846804C135.192563 234.478336 232.663502 136.336108 351.710852 91.620697c36.228109-14.652721 74.913177-21.085224 113.019053-28.724205z m19.207457 165.326373c-0.358157 72.904427 0.178055 145.806807-0.179078 218.71021-50.566676 0.26606-101.136422 0.223081-151.703097 0.044003-0.358157-55.034431 0.179079-110.069885-0.179079-165.104316a1724.762131 1724.762131 0 0 0-50.254567 0.044002c-0.848321 69.865207-0.938372 139.821489 0.046048 209.68772 67.3622 0.445138 134.726447-0.179079 202.090695 0.222058 0.179079 75.895551 0.179079 151.748123 0 227.64265-55.347562 0.13303-110.694101 0.222057-166.041664-0.044002-1.072425-54.900378-0.401136-109.801778-0.224104-164.658154-17.242709-0.623193-34.485419-0.669242-51.727105-0.179079 0.179079 69.733201 0.223081 139.507334 0 209.284537 145.939837 1.027399 291.879674-0.223081 437.821557 0.579192 0.358157 7.147794 0.714268 14.295588 1.02433 21.443381 16.974603 0.802272 33.9533 0.892323 50.922786 0.358157-0.217964-77.237105-0.217964-154.472164 0.048095-231.665267-17.152658-0.534166-34.30941-0.445138-51.463092 0.358158 0.449231 54.81135 0.986467 109.668749-0.130983 164.479075-55.794747 0.26606-111.633496 0.26606-167.428244 0-0.759293-75.850525-0.802272-151.704121 0.045026-227.509621 49.675376-0.268106 99.393731-0.401136 149.114133 0.042979 0.358157 7.147794 0.715291 14.252609 1.025352 21.397333 17.065677 0.849344 34.171264 0.938372 51.279921 0.582261 0-77.32511 0-154.651242 0.048095-231.977375-17.288758-0.401136-34.576493-0.312108-51.821249 0.536212 0.49221 54.81135 0.985444 109.6227-0.130983 164.43405-49.854455 0.26606-99.707886 0.26606-149.515269 0-1.072425-72.76935-0.401136-145.494699-0.268106-218.218-17.466814-0.623193-34.933627-0.756223-52.399418-0.490164z" fill="#f4ea2a" p-id="15393" class="selected"></path><path d="M483.937362 228.222865c17.46579-0.26606 34.932604-0.13303 52.398394 0.49221-0.13303 72.723302-0.804319 145.44865 0.268107 218.218 49.808406 0.26606 99.661837 0.26606 149.515268 0 1.116427-54.81135 0.623193-109.6227 0.130983-164.434049 17.244756-0.848321 34.532491-0.938372 51.82125-0.536213-0.048095 77.326133-0.048095 154.651242-0.048096 231.977376-17.10968 0.356111-34.215266 0.26606-51.27992-0.582262-0.310062-7.144724-0.667196-14.249539-1.025353-21.397332-49.720402-0.445138-99.438757-0.312108-149.114132-0.042979-0.847298 75.8055-0.804319 151.659095-0.045026 227.50962 55.794747 0.26606 111.633496 0.26606 167.428244 0 1.11745-54.81135 0.580215-109.668749 0.130983-164.479075 17.153682-0.802272 34.310434-0.892323 51.463092-0.358157-0.26606 77.193103-0.26606 154.428162-0.048095 231.665267-16.969487 0.534166-33.948183 0.445138-50.922787-0.358157-0.310062-7.147794-0.666172-14.295588-1.024329-21.443382-145.941883-0.802272-291.88172 0.448208-437.821557-0.579191 0.223081-69.777203 0.179079-139.551336 0-209.284537a800.573371 800.573371 0 0 1 51.727105 0.179079c-0.177032 54.856375-0.848321 109.757776 0.224104 164.658153 55.347562 0.26606 110.694101 0.177032 166.041664 0.044003 0.179079-75.894528 0.179079-151.748123 0-227.642651-67.364247-0.401136-134.728494 0.222057-202.090695-0.222057-0.983397-69.866231-0.89437-139.821489-0.046049-209.68772 16.751522-0.26606 33.503045-0.26606 50.254568-0.044002 0.358157 55.034431-0.179079 110.069885 0.179078 165.104315 50.566676 0.179079 101.136422 0.222057 151.703098-0.044002 0.358157-72.90545-0.178055-145.80783 0.180101-218.712257z" fill="#FEFEFE" p-id="15394"></path></svg>