<?xml version="1.0" standalone="no"?><!DOCTYPE svg PUBLIC "-//W3C//DTD SVG 1.1//EN" "http://www.w3.org/Graphics/SVG/1.1/DTD/svg11.dtd"><svg t="1507626001076" class="icon" style="" viewBox="0 0 1024 1024" version="1.1" xmlns="http://www.w3.org/2000/svg" p-id="1184" xmlns:xlink="http://www.w3.org/1999/xlink" width="150" height="150"><defs><style type="text/css"></style></defs><path d="M511.570723 960.703395c-247.949138 0-448.938756-200.988594-448.938756-448.938756 0-247.949138 200.99064-448.938756 448.938756-448.938756 247.936859 0 448.939779 200.99064 448.939779 448.938756C960.510502 759.713778 759.507582 960.703395 511.570723 960.703395zM583.922565 663.212934c0.791016 0.388856-0.403183 0.779759 0.424672 1.170662l0-41.016159c-0.511653-0.48914 0.60989-1.121544 0.218988-1.609661l0-14.418384c0.585331 0.243547-0.827855 0.537236-0.218988 0.827855L584.347237 567.150064c-0.511653-0.48607 0.60989-1.119497 0.218988-1.606591l0-14.419408c0.585331 0.24457-0.827855 0.535189-0.218988 0.828878l0-41.016159c-0.511653-0.487094 0.60989-1.121544 0.218988-1.607614l0-2.826372 0 0c0.390903-0.487094-0.730641-1.119497-0.218988-1.607614l0-41.017182c-0.608867 0.293689 0.804319 0.584308 0.218988 0.828878L584.566224 343.021447c0-1.460258-0.071631-2.920516-0.205685-4.384867 0.134053-1.411139 0.205685-2.87242 0.205685-4.333702 0-4.872984-1.910513-9.305947-5.004991-12.471033-7.647167-15.589047-23.880897-29.228695-47.556109-39.60502-29.288047-12.811794-67.868737-19.872606-108.642372-19.872606-40.772612 0-79.352279 7.060813-108.642372 19.872606-23.674189 10.376325-39.907918 24.015973-47.555086 39.60502-3.093455 3.165086-5.006014 7.598049-5.006014 12.471033 0 1.461281 0.073678 2.921539 0.207731 4.333702-0.134053 1.463328-0.207731 2.923586-0.207731 4.384867l0 312.4952c0 24.354688 18.670222 45.984311 52.5611 60.793598 29.290093 12.859889 67.86976 19.923772 108.642372 19.923772 40.773635 0 79.354326-7.062859 108.642372-19.923772 1.619894-0.681522 2.960425-1.509377 4.50664-2.242064l0 0.295735c0 0 29.79663-12.824073 47.834448-31.66621l0-2.87242c-2.593058-2.486634-0.704035-4.532223-0.704035-5.604648l0-5.260817C584.201927 667.059542 583.604316 665.162332 583.922565 663.212934zM777.848299 486.871693l-44.61001 98.449219-46.179762-98.449219-75.722612 0 46.251394 90.410126-29.568433 0 0 41.211611 50.64854 0 9.852392 19.291368-60.500932 0 0 41.017182 64.386426 0 0 82.372056 68.466348 0 0-82.372056 63.411215 0 0-41.017182-59.927881 0 9.120728-19.291368 50.807153 0 0-41.211611-31.321356 0 42.770106-90.410126L777.848299 486.871693zM518.889409 522.384511c-25.232684 11.057847-59.161425 17.147542-95.526657 17.147542s-70.291926-6.089695-95.525634-17.147542c-19.424398-8.524141-31.980365-19.72832-31.980365-28.595268l0-28.837792c5.638417 3.605108 11.923564 6.91755 18.86465 9.936303 29.290093 12.859889 67.86976 19.924795 108.642372 19.924795 40.773635 0 79.354326-7.063883 108.642372-19.924795 6.942109-3.018753 13.226233-6.331195 18.86465-9.936303l0 28.837792 0 0C550.869774 502.655168 538.314831 513.859347 518.889409 522.384511zM518.889409 442.543092c-25.232684 11.057847-59.161425 17.147542-95.526657 17.147542-36.376489 0-70.291926-6.089695-95.525634-17.147542-19.424398-8.525164-31.980365-19.72832-31.980365-28.595268l0-28.788673c5.638417 3.555989 11.923564 6.868431 18.86465 9.890254 29.290093 12.857842 67.86976 19.922748 108.642372 19.922748 40.773635 0 79.354326-7.063883 108.642372-19.922748 6.942109-3.0208 13.226233-6.333242 18.86465-9.890254l0 28.788673 0 0C550.869774 422.813748 538.314831 434.017928 518.889409 442.543092zM518.889409 362.897124c-25.232684 11.008728-59.161425 17.0974-95.526657 17.0974s-70.291926-6.089695-95.525634-17.0974c-16.355503-7.16212-27.826765-16.270569-31.055297-24.260543 3.227508-7.987928 14.699794-17.049305 31.055297-24.208355 25.233708-11.057847 59.149145-17.147542 95.525634-17.147542 36.364209 0 70.292949 6.089695 95.526657 17.147542 16.355503 7.160073 27.827789 16.22145 31.054273 24.208355C546.718221 346.626555 535.245935 355.736027 518.889409 362.897124zM423.363775 574.605873c40.773635 0 79.354326-7.064906 108.642372-19.875676 6.151094-2.680039 11.789511-5.604648 16.905018-8.720615l0 34.04949 0 0c-4.227278 7.452739-15.089673 15.589047-30.020734 22.164812-25.232684 11.008728-59.161425 17.0974-95.526657 17.0974s-70.291926-6.088672-95.525634-17.0974c-19.424398-8.525164-31.980365-19.778462-31.980365-28.64234l0-28.791743c5.638417 3.557012 11.923564 6.91755 18.86465 9.940396C344.010473 567.539944 382.591163 574.605873 423.363775 574.605873zM423.363775 656.538931c40.773635 0 79.354326-7.062859 108.642372-19.874653 6.151094-2.679016 11.789511-5.601578 16.905018-8.719592l0 34.04949 0 0c-4.227278 7.454786-15.089673 15.588023-30.020734 22.11467-25.232684 11.060917-59.161425 17.147542-95.526657 17.147542-36.376489 0-70.291926-6.086625-95.525634-17.147542-19.424398-8.475022-31.980365-19.726274-31.980365-28.592198L295.857776 626.726951c5.638417 3.554966 11.923564 6.91755 18.86465 9.937326C344.010473 649.476071 382.591163 656.538931 423.363775 656.538931z" p-id="1185" fill="#26ed6d"></path></svg>