<?xml version="1.0" standalone="no"?><!DOCTYPE svg PUBLIC "-//W3C//DTD SVG 1.1//EN" "http://www.w3.org/Graphics/SVG/1.1/DTD/svg11.dtd"><svg t="1503026274901" class="icon" style="" viewBox="0 0 1034 1024" version="1.1" xmlns="http://www.w3.org/2000/svg" p-id="5064" xmlns:xlink="http://www.w3.org/1999/xlink" width="201.953125" height="200"><defs><style type="text/css"></style></defs><path d="M326.251 360.184c8.761-1.507 18.091-2.321 28.025-2.321l358.435 0c4.498 0 8.859 0.254 13.101 0.722l0-60.238c0-22.638-17.733-40.37-40.373-40.37L373.756 257.977c-21.97 0-47.506 17.635-47.506 40.37l0.001 0L326.251 360.184z" p-id="5065" fill="#ff0000"></path><path d="M366.977 495.066c-16.688 0-30.261 13.572-30.261 30.254 0 16.68 13.573 30.251 30.261 30.251 16.682 0 30.254-13.571 30.254-30.251C397.231 508.639 383.659 495.066 366.977 495.066z" p-id="5066" fill="#ff0000"></path><path d="M684.423 495.066c-15.273 0-27.697 12.425-27.697 27.688 0 15.26 12.424 27.677 27.697 27.677 15.266 0 27.683-12.417 27.684-27.677C712.106 507.491 699.688 495.066 684.423 495.066z" p-id="5067" fill="#ff0000"></path><path d="M712.712 400.67 354.275 400.67c-96.67 0-99.374 99.259-99.374 100.262l0 124.684c0 24.164 19.509 46.182 40.929 46.182l73.231 0 0-28.54 313.94 0 0 28.539 80.366 0c21.949 0 33.794-23.787 33.794-46.181L797.161 500.932C797.161 478.826 776.934 400.67 712.712 400.67zM366.977 598.38c-40.294 0-73.07-32.775-73.07-73.061 0-40.286 32.776-73.061 73.07-73.061 40.289 0 73.064 32.775 73.064 73.061C440.042 565.604 407.266 598.38 366.977 598.38zM684.423 593.238c-38.88 0-70.508-31.618-70.508-70.484 0-38.871 31.628-70.496 70.508-70.496 38.874 0 70.493 31.625 70.493 70.496C754.916 561.62 723.297 593.238 684.423 593.238z" p-id="5068" fill="#ff0000"></path><path d="M517 0C234.23 0 5 229.23 5 512c0 282.771 229.23 512 512 512s512-229.229 512-512C1029 229.23 799.77 0 517 0zM839.971 625.616c0 30.141-11.621 55.876-30.214 71.803 0.593 1.939 0.921 3.984 0.921 6.095l0 46.766c0 6.568-2.441 11.553-6.137 14.995-3.451 3.852-8.53 6.41-15.267 6.41l-46.748 0c-11.671 0-21.405-9.728-21.405-21.405l0-35.674L338.083 714.606l0 35.674c0 6.599-2.463 11.6-6.188 15.041-3.449 3.826-8.511 6.364-15.217 6.364l-46.754 0c-11.671 0-21.404-9.728-21.404-21.405l0-46.767c0-1.722 0.235-3.395 0.636-5.007-22.037-16.397-37.064-43.519-37.064-72.89L212.092 500.932c0-41.645 21.887-101.671 76.906-128.8l-5.557 0 0-73.786c0-44.307 42.205-83.178 90.316-83.178l311.682 0c46.644 0 83.183 36.538 83.183 83.178l0 73.785-0.782 0c49.847 28.304 72.132 92.004 72.132 128.8L839.972 625.616z" p-id="5069" fill="#ff0000"></path></svg>