<?xml version="1.0" standalone="no"?><!DOCTYPE svg PUBLIC "-//W3C//DTD SVG 1.1//EN" "http://www.w3.org/Graphics/SVG/1.1/DTD/svg11.dtd"><svg t="1504245465867" class="icon" style="" viewBox="0 0 1024 1024" version="1.1" xmlns="http://www.w3.org/2000/svg" p-id="12814" xmlns:xlink="http://www.w3.org/1999/xlink" width="200" height="200"><defs><style type="text/css"></style></defs><path d="M513.25002 3.145643c-281.754346 0-510.161555 228.398874-510.161555 510.140653 0 281.744849 228.408232 510.143723 510.161555 510.143723 281.754346 0 510.161555-228.398874 510.161555-510.143723C1023.411575 231.544517 795.004366 3.145643 513.25002 3.145643zM754.041787 687.872566c20.343137 20.517289 20.343137 53.782927 0 74.302263-20.348254 20.520359-53.329741 20.520359-73.673902 0l-169.344671-174.657902-165.012839 170.288384c-20.344161 20.516266-53.329741 20.516266-73.669808 0-20.347231-20.520359-20.347231-53.785997 0-74.305333l165.008745-170.284291L272.339544 342.931397c-20.347231-20.520359-20.347231-53.788044 0-74.30431 20.340067-20.518313 53.325648-20.518313 73.669808 0l165.012839 170.286338 169.344671-174.658925c20.344161-20.516266 53.325648-20.516266 73.673902 0 20.343137 20.520359 20.343137 53.788044 0 74.303286l-169.344671 174.657902L754.041787 687.872566z" p-id="12815" fill="#d81e06"></path></svg>