<?xml version="1.0" standalone="no"?><!DOCTYPE svg PUBLIC "-//W3C//DTD SVG 1.1//EN" "http://www.w3.org/Graphics/SVG/1.1/DTD/svg11.dtd"><svg t="1504334503583" class="icon" style="" viewBox="0 0 1024 1024" version="1.1" xmlns="http://www.w3.org/2000/svg" p-id="14032" xmlns:xlink="http://www.w3.org/1999/xlink" width="200" height="200"><defs><style type="text/css"></style></defs><path d="M512 0C229.227055 0 0 229.227055 0 512s229.227055 512 512 512 512-229.227055 512-512S794.772945 0 512 0zM244.112291 502.262691c-69.911273-60.043636-73.821091-152.994909-43.222109-211.372218 1.759418 2.904436 2.699636 5.445818 4.440436 7.195927 31.362327 31.511273 62.817745 62.938764 94.273164 94.366255 14.736291 14.726982 29.193309 14.726982 43.715491 0.027927 16.681891-16.877382 33.326545-33.782691 49.9712-50.697309 13.433018-13.665745 13.488873-28.336873 0.037236-41.825745-30.431418-30.496582-60.918691-60.937309-91.378036-91.405964-1.759418-1.759418-3.435055-3.593309-5.259636-5.520291 60.965236-25.953745 153.916509-12.986182 207.7696 63.208727 51.432727 72.759855 40.196655 172.776727-26.0096 232.922764C412.448582 559.141236 312.0128 560.574836 244.112291 502.262691zM800.116364 744.829673c-13.023418 13.042036-26.4192 25.4976-39.005091 38.949236C748.692945 797.044364 735.232 809.890909 716.427636 809.890909l-6.916655 0c-19.065018 0-32.060509-14.0288-44.907055-27.061527-66.290036-67.267491-133.026909-133.995055-199.344873-201.234618-5.166545-5.241018-8.638836-12.222836-12.288-18.767127-1.954909-3.500218-1.033309-6.376727 3.472291-8.564364 48.090764-23.365818 83.009164-59.522327 104.271127-108.6464 1.684945-3.8912 4.012218-5.948509 7.763782-4.440436 6.916655 2.774109 14.103273 5.455127 20.163491 9.6256 5.780945 3.984291 10.323782 9.802473 15.350691 14.875927 65.396364 65.889745 130.783418 131.7888 196.170473 197.697164C825.576727 688.965818 825.5488 719.378618 800.116364 744.829673z" p-id="14033" fill="#04bdfe"></path><path d="M715.329164 663.700945c-20.48 0.251345-37.199127 17.249745-37.152582 37.776291 0.046545 20.880291 17.082182 37.673891 38.036945 37.515636 20.964073-0.158255 37.739055-17.175273 37.497018-38.055564C753.468509 680.196655 736.200145 663.440291 715.329164 663.700945z" p-id="14034" fill="#04bdfe"></path></svg>