<?xml version="1.0" standalone="no"?><!DOCTYPE svg PUBLIC "-//W3C//DTD SVG 1.1//EN" "http://www.w3.org/Graphics/SVG/1.1/DTD/svg11.dtd"><svg t="1502849024870" class="icon" style="" viewBox="0 0 1024 1024" version="1.1" xmlns="http://www.w3.org/2000/svg" p-id="3355" xmlns:xlink="http://www.w3.org/1999/xlink" width="200" height="200"><defs><style type="text/css"></style></defs><path d="M779.045066 670.398273C730.632587 670.398273 686.793954 690.195623 655.291201 722.05493L382.199015 565.607924C389.502974 547.370627 393.5237 527.494811 393.5237 506.704801 393.5237 489.200902 390.666476 472.348529 385.408955 456.574095L642.039182 286.542634C670.945811 313.877575 710.043398 330.679915 753.019709 330.679915 841.8181 330.679915 914.060626 258.949596 914.060626 170.780815 914.060626 82.598388 841.8181 10.856686 753.019709 10.856686 664.221317 10.856686 591.978789 82.598388 591.978789 170.780815 591.978789 188.350678 594.856627 205.264444 600.153083 221.091173L343.599583 391.071458C314.67921 363.661479 275.525508 346.8057 232.48278 346.8057 143.684387 346.8057 71.44186 418.536019 71.44186 506.704801 71.44186 594.873582 143.684387 666.603901 232.48278 666.603901 272.014388 666.603901 308.257039 652.379279 336.312803 628.825064L614.442637 788.159059C608.668641 805.301367 605.533139 823.63192 605.533139 842.67882 605.533139 937.675657 683.371015 1014.961652 779.046212 1014.961652 874.720263 1014.961652 952.55814 937.675657 952.55814 842.67882 952.556994 747.683126 874.719118 670.398273 779.045066 670.398273L779.045066 670.398273ZM753.018563 98.072624C793.381574 98.072624 826.21846 130.689191 826.21846 170.779672 826.21846 210.856508 793.381574 243.461692 753.018563 243.461692 712.655553 243.461692 679.818666 210.856508 679.818666 170.779672 679.818666 130.689191 712.655553 98.072624 753.018563 98.072624L753.018563 98.072624ZM232.481635 579.385701C192.118624 579.385701 159.280592 546.781636 159.280592 506.704801 159.280592 466.627965 192.118624 434.022781 232.481635 434.022781 272.844643 434.022781 305.682677 466.627965 305.682677 506.704801 305.682677 546.781636 272.844643 579.385701 232.481635 579.385701L232.481635 579.385701ZM779.045066 928.820224C731.207466 928.820224 692.288529 890.178369 692.288529 842.67882 692.288529 795.181532 731.20632 756.538535 779.045066 756.538535 826.881519 756.538535 865.800456 795.180389 865.800456 842.67882 865.800456 890.178369 826.882665 928.820224 779.045066 928.820224L779.045066 928.820224Z" p-id="3356" fill="#d81e06"></path></svg>