<?xml version="1.0" standalone="no"?><!DOCTYPE svg PUBLIC "-//W3C//DTD SVG 1.1//EN" "http://www.w3.org/Graphics/SVG/1.1/DTD/svg11.dtd"><svg t="1495078613483" class="icon" style="" viewBox="0 0 1024 1024" version="1.1" xmlns="http://www.w3.org/2000/svg" p-id="2415" xmlns:xlink="http://www.w3.org/1999/xlink" width="200" height="200"><defs><style type="text/css"></style></defs><path d="M309.14 600.2l-17.64 11.34-10.080-16.38-109.62 70.56 11.34 17.64-17.64 11.34-21.42-34.020 61.74-40.32c-3.78-2.52-7.56-5.040-10.080-6.3l16.38-15.12c3.78 2.52 7.56 6.3 12.6 10.080l64.26-41.58 20.16 32.76zM248.66 752.66l5.040 8.82-17.64 11.34-54.18-84.42 49.14-31.5-8.82-13.86 17.64-11.34 8.82 13.86 50.4-31.5 54.18 84.42-17.64 11.34-5.040-8.82-32.76 20.16 21.42 32.76-17.64 11.34-21.42-32.76-31.5 20.16zM209.6 692.18l8.82 13.86 32.76-20.16-8.82-13.86-32.76 20.16zM238.58 736.28l32.76-20.16-8.82-13.86-32.76 20.16 8.82 13.86zM292.76 639.26l-32.76 21.42 8.82 13.86 32.76-21.42-8.82-13.86zM320.48 683.36l-8.82-13.86-32.76 21.42 8.82 13.86 32.76-21.42zM440.18 674.54l-16.38 11.34-47.88-74.34c3.78 16.38 6.3 31.5 6.3 47.88l-18.9-13.86c1.26-21.42-2.52-44.1-10.080-66.78l-20.16 13.86-11.34-17.64 21.42-13.86-20.16-30.24 16.38-11.34 20.16 31.5 17.64-11.34 10.080 16.38-17.64 11.34 5.040 8.82c12.6 3.78 26.46 7.56 40.32 12.6v21.42c-11.34-5.040-20.16-10.080-27.72-13.86l52.92 78.12zM411.2 498.14c-5.040-3.78-11.34-6.3-16.38-8.82l16.38-15.12c5.040 3.78 11.34 7.56 17.64 12.6l36.54-23.94 10.080 16.38-46.62 30.24c1.26 18.9 0 32.76-1.26 42.84 8.82-6.3 16.38-12.6 23.94-18.9 0-8.82 0-16.38-1.26-25.2l18.9-1.26c5.040 44.1-5.040 83.16-30.24 115.92l-18.9-8.82c13.86-17.64 22.68-36.54 27.72-57.96l-31.5 22.68-12.6-11.34c1.26-1.26 1.26-2.52 2.52-3.78 3.78-7.56 5.040-22.68 3.78-42.84l-28.98 18.9-10.080-16.38 40.32-25.2zM461.6 661.94l-18.9-8.82c30.24-37.8 44.1-80.64 40.32-128.52l18.9-1.26c1.26 18.9 1.26 37.8-2.52 55.44 17.64 2.52 34.020 6.3 47.88 11.34l-5.040 21.42c-12.6-6.3-28.98-10.080-47.88-13.86-6.3 21.42-17.64 42.84-32.76 64.26zM530.9 436.4l-5.040 20.16c-11.34-3.78-27.72-7.56-45.36-8.82l5.040-18.9c17.64 0 32.76 3.78 45.36 7.56zM649.34 535.94c-11.34 6.3-20.16 11.34-28.98 13.86-7.56 2.52-16.38 2.52-25.2 0h-8.82c-3.78 2.52-3.78 12.6-2.52 34.020l-21.42-3.78c0-18.9 1.26-32.76 6.3-40.32l-30.24-46.62-22.68 13.86-10.080-16.38 39.060-25.2 41.58 64.26 2.52 1.26c6.3 1.26 12.6 2.52 17.64 2.52 6.3 0 15.12-3.78 25.2-10.080s21.42-12.6 34.020-21.42c8.82-5.040 16.38-11.34 25.2-16.38 8.82-6.3 15.12-10.080 18.9-13.86l7.56 20.16-39.060 25.2c-8.82 6.3-18.9 12.6-28.98 18.9zM532.16 423.8l-8.82-13.86 93.24-59.22 7.56 12.6c-3.78 13.86-10.080 27.72-17.64 40.32l34.020-21.42 47.88 74.34c6.3 10.080 5.040 18.9-7.56 26.46l-12.6 7.56-12.6-11.34 11.34-7.56c3.78-2.52 3.78-5.040 2.52-8.82l-5.040-7.56-22.68 15.12 17.64 27.72-16.38 10.080-17.64-27.72-21.42 13.86 17.64 27.72-16.38 10.080-59.22-90.72 37.8-23.94c-7.56 0-15.12 0-23.94 1.26l3.78-13.86-31.5 18.9zM601.46 378.44l-34.020 21.42h22.68c3.78-6.3 7.56-13.86 11.34-21.42zM593.9 430.1l-21.42 13.86 6.3 10.080 21.42-13.86-6.3-10.080zM595.16 479.24l21.42-13.86-6.3-10.080-21.42 13.86 6.3 10.080zM632.96 406.16l-22.68 15.12 6.3 10.080 22.68-15.12-6.3-10.080zM632.96 455.3l22.68-15.12-6.3-10.080-22.68 15.12 6.3 10.080zM698.48 328.040l-3.78 20.16c-11.34-3.78-27.72-7.56-45.36-8.82l5.040-18.9c15.12 1.26 30.24 3.78 44.1 7.56zM819.44 426.32c-11.34 7.56-21.42 12.6-30.24 15.12s-17.64 2.52-25.2 0c-3.78-1.26-7.56-1.26-8.82 0-3.78 2.52-3.78 13.86-2.52 34.020l-20.16-3.78c0-18.9 1.26-32.76 6.3-40.32l-31.5-45.36-22.68 15.12-10.080-16.38 39.060-25.2 41.58 64.26h3.78c6.3 1.26 12.6 2.52 18.9 2.52 6.3-1.26 15.12-5.040 26.46-11.34 10.080-6.3 22.68-13.86 35.28-22.68 7.56-5.040 15.12-10.080 23.94-15.12 7.56-5.040 13.86-10.080 17.64-12.6l7.56 20.16-35.28 22.68c-12.6 5.040-22.68 12.6-34.020 18.9zM808.1 402.38l-15.12-13.86c7.56-3.78 15.12-8.82 22.68-12.6 3.78-2.52 5.040-6.3 2.52-11.34l-41.58-64.26-63 40.32-11.34-17.64 63-40.32-16.38-25.2 17.64-11.34 16.38 25.2 23.94-15.12 11.34 17.64-23.94 15.12 44.1 69.3c7.56 11.34 5.040 21.42-6.3 30.24l-23.94 13.86zM786.68 353.24l-7.56 18.9c-12.6-6.3-26.46-12.6-44.1-18.9l8.82-17.64c16.38 6.3 31.5 12.6 42.84 17.64z" fill="#7ED499" p-id="2416"></path><path d="M1009.7 383.48l-153.72-243.18c-12.6-20.16-40.32-26.46-63-13.86l-763.56 482.58c-20.16 13.86-26.46 41.58-13.86 63l152.46 240.66c13.86 20.16 41.58 26.46 63 13.86l763.56-483.84c21.42-11.34 27.72-39.060 15.12-59.22zM978.2 418.76l-763.56 483.84c-6.3 5.040-15.12 1.26-20.16-5.040l-152.46-240.66c-5.040-6.3-2.52-16.38 3.78-20.16l763.56-483.84c6.3-5.040 15.12-1.26 20.16 5.040l153.72 240.66c5.040 6.3 1.26 16.38-5.040 20.16zM312.92 236.060l-2.52-32.76 27.72 17.64 30.24-13.86-7.56 31.5 21.42 25.2-34.020 2.52-15.12 27.72-12.6-30.24-31.5-6.3c-1.26 1.26 23.94-21.42 23.94-21.42zM485.54 175.58l13.86-30.24 15.12 27.72 32.76 2.52-21.42 23.94 6.3 32.76-30.24-13.86-27.72 17.64 5.040-32.76-25.2-21.42c-1.26 0 31.5-6.3 31.5-6.3zM712.34 820.7l2.52 32.76-27.72-17.64-30.24 12.6 7.56-31.5-21.42-25.2 32.76-2.52 17.64-27.72 12.6 30.24 31.5 6.3-25.2 22.68zM539.72 879.92l-15.12 30.24-15.12-27.72-32.76-2.52 23.94-23.94-6.3-31.5 30.24 13.86 27.72-15.12-5.040 32.76 23.94 21.42c0-3.78-31.5 2.52-31.5 2.52zM195.74 372.14l-18.9-26.46 32.76 1.26 20.16-26.46 8.82 31.5 31.5 11.34-26.46 18.9v32.76l-25.2-20.16-31.5 8.82c-2.52 0 8.82-31.5 8.82-31.5z" fill="#7ED499" p-id="2417"></path><path d="M291.5 178.1c126-80.64 280.98-81.9 405.72-18.9l30.24-18.9c-36.54-20.16-76.86-36.54-118.44-45.36-55.44-12.6-113.4-13.86-168.84-5.040-57.96 8.82-113.4 30.24-163.8 63s-93.24 71.82-126 120.96c-32.76 47.88-55.44 99.54-68.040 154.98-8.82 42.84-12.6 84.42-8.82 126l30.24-18.9c-7.56-139.86 60.48-278.46 187.74-357.84zM731.24 871.1c-126 80.64-279.72 81.9-404.46 18.9l-30.24 18.9c36.54 20.16 76.86 36.54 118.44 45.36 55.44 12.6 113.4 13.86 168.84 5.040 57.96-8.82 113.4-31.5 163.8-63s93.24-71.82 126-120.96c32.76-47.88 54.18-99.54 66.78-154.98 8.82-42.84 12.6-83.16 8.82-126l-27.72 18.9c3.78 139.86-64.26 278.46-190.26 357.84z" fill="#7ED499" p-id="2418"></path><path d="M383.48 321.74c34.020-21.42 74.34-34.020 113.4-36.54l46.62-30.24c-61.74-7.56-122.22 6.3-176.4 40.32-52.92 32.76-90.72 83.16-112.14 141.12l46.62-30.24c18.9-32.76 45.36-63 81.9-84.42zM640.52 727.46c-34.020 21.42-74.34 34.020-113.4 36.54l-46.62 30.24c61.74 7.56 122.22-6.3 176.4-40.32 52.92-32.76 90.72-83.16 112.14-141.12l-46.62 30.24c-18.9 31.5-47.88 63-81.9 84.42z" fill="#7ED499" p-id="2419"></path></svg>