<?xml version="1.0" standalone="no"?><!DOCTYPE svg PUBLIC "-//W3C//DTD SVG 1.1//EN" "http://www.w3.org/Graphics/SVG/1.1/DTD/svg11.dtd"><svg t="1502958792944" class="icon" style="" viewBox="0 0 1024 1024" version="1.1" xmlns="http://www.w3.org/2000/svg" p-id="2380" xmlns:xlink="http://www.w3.org/1999/xlink" width="200" height="200"><defs><style type="text/css"></style></defs><path d="M512 512m-511.978511 0a511.978511 511.978511 0 1 0 1023.957022 0 511.978511 511.978511 0 1 0-1023.957022 0Z" fill="#1296db" p-id="2381" class="selected"></path><path d="M228.006947 357.128747c3.713578-60.675918 42.101887-99.781564 58.056254-111.658056C302.044174 233.619782 328.165088 218.190371 346.501712 234.964406c21.895683 19.99745 80.619132 107.978247 97.648994 141.42501 7.6574 14.997576-1.254573 39.385009-24.022113 59.356876-22.740934 19.971867-52.550867 40.019459-37.697577 70.851675 7.913227 16.418948 10.525728 30.604018 61.565171 82.499969 46.122457 46.845934 73.03848 58.645678 93.295849 65.015759 29.886681 9.414417 43.690058-18.22099 60.924581-39.815821 17.235546-21.570271 33.856086-33.040511 54.215786-24.843828 21.614274 8.754385 117.829616 76.561723 138.470725 96.228645 15.442714 14.718213-6.402827 45.297672-6.402827 45.297672s-39.131229 60.117193-112.989377 64.736397c-97.009428 6.090718-204.799386-25.858948-305.675888-127.823224-99.746772-100.847849-143.181003-223.443002-137.828089-310.764789z" fill="#FFFFFF" p-id="2382"></path></svg>