<?xml version="1.0" standalone="no"?><!DOCTYPE svg PUBLIC "-//W3C//DTD SVG 1.1//EN" "http://www.w3.org/Graphics/SVG/1.1/DTD/svg11.dtd"><svg t="1504763436213" class="icon" style="" viewBox="0 0 1024 1024" version="1.1" xmlns="http://www.w3.org/2000/svg" p-id="3183" xmlns:xlink="http://www.w3.org/1999/xlink" width="200" height="200"><defs><style type="text/css"></style></defs><path d="M848.736 896.112c88-0.064 123.952-62.432 79.904-138.608L591.024 173.728c-44.048-76.176-116.048-76.128-160 0.112L94.272 758.096c-43.952 76.256-7.904 138.576 80.096 138.512L848.736 896.112zM512 320c35.2 0 61.536 71.968 58.496 159.904l0 0.192C567.472 568.048 564.048 640 562.88 640s-23.136 0-48.832 0-48.88 0-51.536 0-7.008-71.968-9.664-159.936l0-0.144C450.176 391.968 476.8 320 512 320zM452 742c0-34.256 27.76-62 62-62 34.24 0 62 27.744 62 62s-27.76 62-62 62C479.76 804 452 776.256 452 742z" p-id="3184" fill="#ff0000"></path></svg>