<?xml version="1.0" standalone="no"?><!DOCTYPE svg PUBLIC "-//W3C//DTD SVG 1.1//EN" "http://www.w3.org/Graphics/SVG/1.1/DTD/svg11.dtd"><svg t="1504489805771" class="icon" style="" viewBox="0 0 1024 1024" version="1.1" xmlns="http://www.w3.org/2000/svg" p-id="2380" xmlns:xlink="http://www.w3.org/1999/xlink" width="200" height="200"><defs><style type="text/css"></style></defs><path d="M510.52864 0.32c282.432 0 512.32 226.304 512.32 510.528a511.872 511.872 0 0 1-512.32 512.32C228.16064 1023.168 0.00064 793.28 0.00064 510.848A509.952 509.952 0 0 1 510.52864 0.32z m277.76 375.424a39.232 39.232 0 0 0-5.888-58.496c-15.616-11.712-37.056-7.808-50.688 5.824l-278.912 282.88a18.88 18.88 0 0 1-27.328 0L322.11264 504.448c-15.616-15.616-44.864-13.696-58.496 5.76-11.712 15.68-7.872 37.12 5.824 50.816l142.4 140.416a37.76 37.76 0 0 0 54.592 0l321.856-325.76z" fill="#13ce66" p-id="2381"></path></svg>