<?xml version="1.0" standalone="no"?><!DOCTYPE svg PUBLIC "-//W3C//DTD SVG 1.1//EN" "http://www.w3.org/Graphics/SVG/1.1/DTD/svg11.dtd"><svg t="1506751435728" class="icon" style="" viewBox="0 0 1024 1024" version="1.1" xmlns="http://www.w3.org/2000/svg" p-id="29356" xmlns:xlink="http://www.w3.org/1999/xlink" width="150" height="150"><defs><style type="text/css"></style></defs><path d="M532.739378 470.604332h141.899104v74.226092h-141.899104zM532.739378 608.13592h141.899104v80.771947h-141.899104z" p-id="29357" fill="#d81e06"></path><path d="M512 33.339787c-264.355719 0-478.656601 214.300882-478.656601 478.6566 0 264.359331 214.300882 478.660213 478.656601 478.660214s478.652988-214.300882 478.652988-478.660214c0-264.352106-214.297269-478.656601-478.652988-478.6566z m-114.610259 528.949862v179.013956c-1.466676 17.462838-11.664771 26.909532-30.565385 28.376209-18.929514-1.466676-29.127609-10.198095-30.561772-26.194257v-154.998038c-8.731419 24.763706-16.747562 42.226543-24.012305 52.392125-11.664771 17.46645-26.194257 23.29703-43.660707 17.466451-16.032287-8.731419-18.929514-22.545629-8.731419-41.475143 30.561772-56.763254 55.292965-114.238171 74.222479-172.460877H277.320991c-16.032287-1.434164-24.760093-11.635871-26.194257-30.565384 1.430551-17.462838 10.16197-26.913145 26.194257-28.376209h58.941593V326.523277c-17.462838 2.933352-33.495125 4.363903-48.028223 4.363903-13.098935 0-21.115078-7.980018-24.012305-24.008693 0-18.897001 6.549467-29.813984 19.648402-32.747336 58.190193-5.794454 104.787864-12.347534 139.717152-19.64479 14.525873-1.430551 24.727581 6.549467 30.561773 24.012305 2.90084 16.032287-2.936965 26.945657-17.466451 32.743724-13.095322 4.367516-26.194257 7.300868-39.293191 8.731419v65.494673h48.028223c13.095322 1.463064 21.078953 10.91337 24.012305 28.376209-1.466676 18.929514-8.735031 29.127609-21.833966 30.565384h-50.206562v13.095323a10019.059338 10019.059338 0 0 0 13.098935 19.648401c21.830353 26.194257 38.545403 50.206562 50.206561 72.036916 8.735031 18.933126 5.798067 34.214013-8.731418 45.842658-16.032287 10.198095-29.846497 6.549467-41.475143-10.91337-4.367516-10.16197-8.735031-17.462838-13.098935-21.830354z m351.47122 185.563424H441.050448c-16.032287-1.466676-24.763706-10.91337-26.197869-28.376209 1.430551-17.46645 10.165582-26.913145 26.197869-28.37982h30.561772V322.155761c0-34.929288 14.529486-51.644338 43.66432-50.206562h172.460876c34.929288-2.90084 50.92545 13.095322 48.02461 48.02461v368.937671h13.098935c14.529486 1.466676 22.545629 10.91337 24.012305 28.37982-1.466676 18.893389-9.482819 29.091484-24.012305 30.561773z" p-id="29358" fill="#d81e06"></path><path d="M663.721499 335.254696h-117.886799c-8.731419 0-13.098935 5.115304-13.098935 15.280886v56.759641h141.899104V350.535582c1.434164-10.165582-2.181952-15.280886-10.91337-15.280886z" p-id="29359" fill="#d81e06"></path></svg>